<svg width="24" height="24" viewBox="0 0 24 24" fill="none" xmlns="http://www.w3.org/2000/svg">
<path d="M6.60518 7.48784L12.5079 13.9697L18.4107 7.48785C18.5515 7.33318 18.7187 7.21049 18.9028 7.12679C19.0868 7.04308 19.284 7 19.4832 7C19.6824 7 19.8796 7.04308 20.0637 7.12679C20.2477 7.21049 20.4149 7.33318 20.5557 7.48785C20.6966 7.64251 20.8083 7.82613 20.8845 8.02821C20.9608 8.23029 21 8.44688 21 8.66561C21 8.88434 20.9608 9.10093 20.8845 9.30301C20.8083 9.50509 20.6966 9.6887 20.5557 9.84337L13.5729 17.5114C12.9795 18.1629 12.0211 18.1629 11.4278 17.5114L4.4449 9.84337C4.30387 9.68882 4.19198 9.50524 4.11564 9.30314C4.0393 9.10105 4 8.8844 4 8.66561C4 8.44681 4.0393 8.23017 4.11564 8.02807C4.19198 7.82598 4.30387 7.6424 4.4449 7.48784C5.03822 6.85302 6.01187 6.83632 6.60518 7.48784Z" fill="white"/>
</svg>
