<svg width="21" height="19" viewBox="0 0 21 19" fill="none" xmlns="http://www.w3.org/2000/svg">
<path d="M18 9.99875L6.14 9.99875L9.77 14.3587C9.93974 14.563 10.0214 14.8262 9.99702 15.0907C9.97264 15.3551 9.84422 15.599 9.64 15.7687C9.43578 15.9385 9.1725 16.0201 8.90808 15.9958C8.64365 15.9714 8.39974 15.843 8.23 15.6387L3.23 9.63875C3.19636 9.59102 3.16628 9.54089 3.14 9.48875C3.14 9.43875 3.14 9.40875 3.07 9.35875C3.02467 9.24409 3.00094 9.12204 3 8.99875C3.00094 8.87546 3.02467 8.75341 3.07 8.63875C3.07 8.58875 3.07 8.55875 3.14 8.50875C3.16628 8.45661 3.19636 8.40647 3.23 8.35875L8.23 2.35875C8.32402 2.24587 8.44176 2.15509 8.57485 2.09286C8.70793 2.03064 8.85309 1.99851 9 1.99875C9.23365 1.99829 9.46009 2.07967 9.64 2.22875C9.74126 2.3127 9.82496 2.4158 9.88631 2.53215C9.94766 2.64849 9.98546 2.7758 9.99754 2.90678C10.0096 3.03775 9.99573 3.16982 9.95669 3.29543C9.91764 3.42103 9.8542 3.5377 9.77 3.63875L6.14 7.99875L18 7.99875C18.2652 7.99875 18.5196 8.1041 18.7071 8.29164C18.8946 8.47918 19 8.73353 19 8.99875C19 9.26396 18.8946 9.51832 18.7071 9.70585C18.5196 9.89339 18.2652 9.99875 18 9.99875Z" fill="#5F7179"/>
</svg>
