<svg width="25" height="24" viewBox="0 0 25 24" fill="none" xmlns="http://www.w3.org/2000/svg">
<path fill-rule="evenodd" clip-rule="evenodd" d="M3.77481 4.96589L0.0610687 0H7.5L8.5 1.33785C9.74046 0.843553 11.0878 0.572547 12.5 0.572547C14.4313 0.572547 16.2481 1.08021 17.8244 1.97147C17.9389 2.03827 17.9599 2.19476 17.8664 2.29019L14.6107 5.60333C14.5553 5.66058 14.4714 5.67967 14.3969 5.65486C13.7996 5.4621 13.1622 5.35713 12.5 5.35713C12.1813 5.35713 11.8664 5.38194 11.5592 5.42775L13.8263 8.46034L21.6584 0H23.8454L14.8053 9.76765L18.2252 14.3423C18.5744 13.5465 18.7691 12.6647 18.7691 11.7372C18.7691 10.7448 18.5458 9.80392 18.1489 8.96609C18.1107 8.88593 18.126 8.79241 18.187 8.72943L21.3282 5.53271C21.4179 5.44111 21.5706 5.45446 21.6412 5.56134C22.7977 7.33051 23.4714 9.45275 23.4714 11.7372C23.4714 14.2488 22.6565 16.5657 21.2824 18.4303L25 23.4H17.5611L16.5897 22.1003C15.3263 22.6175 13.9466 22.9019 12.5 22.9019C10.2538 22.9019 8.16412 22.2148 6.42557 21.0354C6.32061 20.9648 6.30725 20.8159 6.39695 20.7262L9.54198 17.5276C9.60496 17.4627 9.70229 17.4474 9.78435 17.4875C10.6069 17.8902 11.5286 18.1154 12.5019 18.1154C12.8569 18.1154 13.2061 18.0849 13.5458 18.0276L10.6908 14.2106L2.18702 23.3981H0L9.71374 12.9052L6.8187 9.03479C6.44084 9.85544 6.23092 10.7715 6.23092 11.7372C6.23092 12.4109 6.33397 13.0617 6.52481 13.6724C6.54771 13.7469 6.52863 13.827 6.47519 13.8824L3.22137 17.1917C3.12595 17.289 2.96565 17.268 2.90076 17.1497C2.02481 15.5447 1.52672 13.7011 1.52672 11.7372C1.52672 9.19129 2.3645 6.84385 3.77481 4.96589ZM9.8855 5.72546L17.4008 15.7546C16.8168 16.4664 16.084 17.0485 15.25 17.4474L7.70992 7.38585L3.24427 1.41419H6.66221L9.8855 5.72546ZM18.021 21.1726C18.8073 20.7012 19.5324 20.1344 20.1775 19.4855L21.7538 21.5925H18.3359L18.021 21.1726Z" fill="black"/>
</svg>
