<svg width="48" height="48" viewBox="0 0 48 48" fill="none" xmlns="http://www.w3.org/2000/svg">
<path fill-rule="evenodd" clip-rule="evenodd" d="M13.5298 15.9588L9.07328 10H18L19.2 11.6053C20.6885 11.0122 22.3053 10.687 24 10.687C26.3176 10.687 28.4977 11.2962 30.3893 12.3656C30.5267 12.4458 30.5519 12.6336 30.4397 12.7481L26.5328 16.7237C26.4664 16.7924 26.3657 16.8153 26.2763 16.7855C25.5595 16.5542 24.7947 16.4282 24 16.4282C23.6176 16.4282 23.2397 16.458 22.871 16.513L25.5916 20.1519L34.9901 10H37.6145L26.7664 21.7206L30.8702 27.2099C31.2893 26.255 31.5229 25.1969 31.5229 24.084C31.5229 22.8931 31.255 21.7641 30.7786 20.7588C30.7328 20.6626 30.7511 20.5504 30.8244 20.4748L34.5939 16.6389C34.7015 16.529 34.8847 16.545 34.9695 16.6733C36.3573 18.7962 37.1656 21.3427 37.1656 24.084C37.1656 27.0977 36.1878 29.8779 34.5389 32.1153L39 38.0786H30.0733L28.9076 36.5191C27.3916 37.1397 25.7359 37.4809 24 37.4809C21.3046 37.4809 18.7969 36.6565 16.7107 35.2412C16.5847 35.1565 16.5687 34.9779 16.6763 34.8702L20.4504 31.0321C20.526 30.9542 20.6427 30.9359 20.7412 30.984C21.7282 31.4672 22.8344 31.7374 24.0023 31.7374C24.4282 31.7374 24.8473 31.7008 25.255 31.6321L21.829 27.0519L11.6244 38.0763H9L20.6565 25.4855L17.1824 20.8412C16.729 21.826 16.4771 22.9252 16.4771 24.084C16.4771 24.8924 16.6008 25.6733 16.8298 26.4061C16.8573 26.4954 16.8344 26.5916 16.7702 26.658L12.8656 30.629C12.7511 30.7458 12.5588 30.7206 12.4809 30.5786C11.4298 28.6527 10.8321 26.4405 10.8321 24.084C10.8321 21.029 11.8374 18.2122 13.5298 15.9588ZM20.8626 16.8702L29.8809 28.9046C29.1802 29.7588 28.3008 30.4573 27.3 30.9359L18.2519 18.8626L12.8931 11.6969H16.9947L20.8626 16.8702ZM30.6252 35.4061C31.5687 34.8405 32.4389 34.1603 33.213 33.3817L35.1046 35.9099H31.0031L30.6252 35.4061Z" fill="white"/>
</svg>
