<svg width="1600" height="278" viewBox="0 0 1600 278" fill="none" xmlns="http://www.w3.org/2000/svg">
<path d="M0 1H1600V-1H0V1Z" fill="white" mask="url(#path-1-inside-1_7834_15310)"/>
<path fill-rule="evenodd" clip-rule="evenodd" d="M1307.53 55.9588L1303.07 50H1312L1313.2 51.6053C1314.69 51.0122 1316.31 50.687 1318 50.687C1320.32 50.687 1322.5 51.2962 1324.39 52.3656C1324.53 52.4458 1324.55 52.6336 1324.44 52.7481L1320.53 56.7237C1320.47 56.7924 1320.37 56.8153 1320.28 56.7855C1319.56 56.5542 1318.79 56.4282 1318 56.4282C1317.62 56.4282 1317.24 56.458 1316.87 56.513L1319.59 60.1519L1328.99 50H1331.61L1320.77 61.7206L1324.87 67.2099C1325.29 66.255 1325.52 65.1969 1325.52 64.084C1325.52 62.8931 1325.25 61.7641 1324.78 60.7588C1324.73 60.6626 1324.75 60.5504 1324.82 60.4748L1328.59 56.6389C1328.7 56.529 1328.88 56.545 1328.97 56.6733C1330.36 58.7962 1331.17 61.3427 1331.17 64.084C1331.17 67.0977 1330.19 69.8779 1328.54 72.1153L1333 78.0786H1324.07L1322.91 76.5191C1321.39 77.1397 1319.74 77.4809 1318 77.4809C1315.3 77.4809 1312.8 76.6565 1310.71 75.2412C1310.58 75.1565 1310.57 74.9779 1310.68 74.8702L1314.45 71.0321C1314.53 70.9542 1314.64 70.9359 1314.74 70.984C1315.73 71.4672 1316.83 71.7374 1318 71.7374C1318.43 71.7374 1318.85 71.7008 1319.25 71.6321L1315.83 67.0519L1305.62 78.0763H1303L1314.66 65.4855L1311.18 60.8412C1310.73 61.826 1310.48 62.9252 1310.48 64.084C1310.48 64.8924 1310.6 65.6733 1310.83 66.4061C1310.86 66.4954 1310.83 66.5916 1310.77 66.658L1306.87 70.629C1306.75 70.7458 1306.56 70.7206 1306.48 70.5786C1305.43 68.6527 1304.83 66.4405 1304.83 64.084C1304.83 61.029 1305.84 58.2122 1307.53 55.9588ZM1314.86 56.8702L1323.88 68.9046C1323.18 69.7588 1322.3 70.4573 1321.3 70.9359L1312.25 58.8626L1306.89 51.6969H1310.99L1314.86 56.8702ZM1324.63 75.4061C1325.57 74.8405 1326.44 74.1603 1327.21 73.3817L1329.1 75.9099H1325L1324.63 75.4061Z" fill="white"/>
<path d="M1395.06 53L1404.32 65.3895L1395 75.4627H1397.1L1405.26 66.6432L1411.86 75.4627H1419L1409.21 62.3765L1417.89 53H1415.79L1408.27 61.1223L1402.2 53H1395.06ZM1398.14 54.5458H1401.43L1415.91 73.9169H1412.63L1398.14 54.5458Z" fill="white"/>
<g clip-path="url(#clip0_7834_15310)">
<path fill-rule="evenodd" clip-rule="evenodd" d="M1495.96 51C1488.24 51 1482 57.1875 1482 64.8423C1482 70.9612 1486 76.1407 1491.54 77.9738C1492.24 78.1117 1492.49 77.676 1492.49 77.3095C1492.49 76.9886 1492.47 75.8887 1492.47 74.7426C1488.59 75.5677 1487.78 73.0925 1487.78 73.0925C1487.15 71.4882 1486.23 71.0759 1486.23 71.0759C1484.96 70.2279 1486.32 70.2279 1486.32 70.2279C1487.73 70.3196 1488.47 71.6488 1488.47 71.6488C1489.72 73.7571 1491.73 73.1614 1492.54 72.7946C1492.65 71.9008 1493.02 71.2821 1493.42 70.9384C1490.32 70.6175 1487.06 69.4258 1487.06 64.1088C1487.06 62.5962 1487.62 61.3587 1488.49 60.3963C1488.36 60.0526 1487.87 58.6314 1488.63 56.7293C1488.63 56.7293 1489.81 56.3626 1492.47 58.1502C1493.61 57.8472 1494.78 57.6931 1495.96 57.6918C1497.14 57.6918 1498.34 57.8524 1499.45 58.1502C1502.11 56.3626 1503.28 56.7293 1503.28 56.7293C1504.05 58.6314 1503.56 60.0526 1503.42 60.3963C1504.32 61.3587 1504.86 62.5962 1504.86 64.1088C1504.86 69.4258 1501.6 70.5944 1498.48 70.9384C1498.99 71.3737 1499.42 72.1987 1499.42 73.5051C1499.42 75.3613 1499.4 76.8511 1499.4 77.3092C1499.4 77.676 1499.66 78.1117 1500.35 77.9741C1505.9 76.1404 1509.89 70.9612 1509.89 64.8423C1509.92 57.1875 1503.65 51 1495.96 51Z" fill="white"/>
</g>
<path d="M421.508 61.172H422.9L427.748 72.5H425.956L424.82 69.7H419.428L418.308 72.5H416.516L421.508 61.172ZM424.26 68.356L422.148 63.156H422.116L419.972 68.356H424.26ZM428.854 60.404H430.294V66.004H430.326C430.582 65.6093 430.95 65.3 431.43 65.076C431.91 64.8413 432.422 64.724 432.966 64.724C433.552 64.724 434.08 64.8253 434.55 65.028C435.03 65.2307 435.435 65.5133 435.766 65.876C436.107 66.228 436.368 66.6493 436.55 67.14C436.731 67.62 436.822 68.1427 436.822 68.708C436.822 69.2733 436.731 69.796 436.55 70.276C436.368 70.756 436.107 71.1773 435.766 71.54C435.435 71.9027 435.03 72.1853 434.55 72.388C434.08 72.5907 433.552 72.692 432.966 72.692C432.454 72.692 431.952 72.58 431.462 72.356C430.982 72.132 430.603 71.8173 430.326 71.412H430.294V72.5H428.854V60.404ZM432.79 71.348C433.174 71.348 433.52 71.284 433.83 71.156C434.139 71.0173 434.4 70.836 434.614 70.612C434.827 70.3773 434.992 70.1 435.11 69.78C435.227 69.4493 435.286 69.092 435.286 68.708C435.286 68.324 435.227 67.972 435.11 67.652C434.992 67.3213 434.827 67.044 434.614 66.82C434.4 66.5853 434.139 66.404 433.83 66.276C433.52 66.1373 433.174 66.068 432.79 66.068C432.406 66.068 432.059 66.1373 431.75 66.276C431.44 66.404 431.179 66.5853 430.966 66.82C430.752 67.044 430.587 67.3213 430.47 67.652C430.352 67.972 430.294 68.324 430.294 68.708C430.294 69.092 430.352 69.4493 430.47 69.78C430.587 70.1 430.752 70.3773 430.966 70.612C431.179 70.836 431.44 71.0173 431.75 71.156C432.059 71.284 432.406 71.348 432.79 71.348ZM439.803 68.708C439.803 69.092 439.862 69.4493 439.979 69.78C440.096 70.1 440.262 70.3773 440.475 70.612C440.688 70.836 440.95 71.0173 441.259 71.156C441.568 71.284 441.915 71.348 442.299 71.348C442.683 71.348 443.03 71.284 443.339 71.156C443.648 71.0173 443.91 70.836 444.123 70.612C444.336 70.3773 444.502 70.1 444.619 69.78C444.736 69.4493 444.795 69.092 444.795 68.708C444.795 68.324 444.736 67.972 444.619 67.652C444.502 67.3213 444.336 67.044 444.123 66.82C443.91 66.5853 443.648 66.404 443.339 66.276C443.03 66.1373 442.683 66.068 442.299 66.068C441.915 66.068 441.568 66.1373 441.259 66.276C440.95 66.404 440.688 66.5853 440.475 66.82C440.262 67.044 440.096 67.3213 439.979 67.652C439.862 67.972 439.803 68.324 439.803 68.708ZM438.267 68.708C438.267 68.1533 438.368 67.636 438.571 67.156C438.784 66.676 439.072 66.2547 439.435 65.892C439.798 65.5293 440.224 65.2467 440.715 65.044C441.206 64.8307 441.734 64.724 442.299 64.724C442.864 64.724 443.392 64.8307 443.883 65.044C444.374 65.2467 444.8 65.5293 445.163 65.892C445.526 66.2547 445.808 66.676 446.011 67.156C446.224 67.636 446.331 68.1533 446.331 68.708C446.331 69.2627 446.224 69.7853 446.011 70.276C445.808 70.756 445.526 71.1773 445.163 71.54C444.8 71.892 444.374 72.1747 443.883 72.388C443.392 72.5907 442.864 72.692 442.299 72.692C441.734 72.692 441.206 72.5907 440.715 72.388C440.224 72.1747 439.798 71.892 439.435 71.54C439.072 71.1773 438.784 70.756 438.571 70.276C438.368 69.7853 438.267 69.2627 438.267 68.708ZM454.855 72.5H453.415V71.332H453.383C453.202 71.7373 452.887 72.068 452.439 72.324C451.991 72.5693 451.474 72.692 450.887 72.692C450.514 72.692 450.162 72.6333 449.831 72.516C449.5 72.4093 449.207 72.2387 448.951 72.004C448.706 71.7693 448.508 71.4707 448.359 71.108C448.21 70.7347 448.135 70.2973 448.135 69.796V64.916H449.575V69.396C449.575 69.748 449.623 70.052 449.719 70.308C449.815 70.5533 449.943 70.756 450.103 70.916C450.263 71.0653 450.444 71.1773 450.647 71.252C450.86 71.316 451.079 71.348 451.303 71.348C451.602 71.348 451.879 71.3 452.135 71.204C452.391 71.108 452.615 70.9587 452.807 70.756C452.999 70.5427 453.148 70.276 453.255 69.956C453.362 69.636 453.415 69.2573 453.415 68.82V64.916H454.855V72.5ZM461.09 66.164H459.026V69.604C459.026 69.8173 459.031 70.0307 459.042 70.244C459.052 70.4467 459.09 70.6333 459.154 70.804C459.228 70.964 459.335 71.0973 459.474 71.204C459.623 71.3 459.836 71.348 460.114 71.348C460.284 71.348 460.46 71.332 460.641 71.3C460.823 71.268 460.988 71.2093 461.138 71.124V72.436C460.967 72.532 460.743 72.596 460.466 72.628C460.199 72.6707 459.991 72.692 459.842 72.692C459.287 72.692 458.855 72.6173 458.546 72.468C458.247 72.308 458.023 72.1053 457.874 71.86C457.735 71.6147 457.65 71.3427 457.618 71.044C457.596 70.7347 457.586 70.4253 457.586 70.116V66.164H455.921V64.916H457.586V62.788H459.026V64.916H461.09V66.164ZM470.137 62.612H466.489V61.172H475.321V62.612H471.673V72.5H470.137V62.612ZM476.588 60.404H478.028V66.084H478.06C478.241 65.6787 478.556 65.3533 479.004 65.108C479.452 64.852 479.969 64.724 480.556 64.724C480.919 64.724 481.265 64.7827 481.596 64.9C481.937 65.0067 482.231 65.1773 482.476 65.412C482.732 65.6467 482.935 65.9507 483.084 66.324C483.233 66.6867 483.308 67.1187 483.308 67.62V72.5H481.868V68.02C481.868 67.668 481.82 67.3693 481.724 67.124C481.628 66.868 481.5 66.6653 481.34 66.516C481.18 66.356 480.993 66.244 480.78 66.18C480.577 66.1053 480.364 66.068 480.14 66.068C479.841 66.068 479.564 66.116 479.308 66.212C479.052 66.308 478.828 66.4627 478.636 66.676C478.444 66.8787 478.295 67.14 478.188 67.46C478.081 67.78 478.028 68.1587 478.028 68.596V72.5H476.588V60.404ZM486.567 69.236C486.567 69.5667 486.636 69.8707 486.775 70.148C486.924 70.4147 487.116 70.644 487.351 70.836C487.585 71.028 487.857 71.1773 488.167 71.284C488.476 71.3907 488.796 71.444 489.127 71.444C489.575 71.444 489.964 71.3427 490.295 71.14C490.625 70.9267 490.929 70.6493 491.207 70.308L492.295 71.14C491.495 72.1747 490.375 72.692 488.935 72.692C488.337 72.692 487.793 72.5907 487.303 72.388C486.823 72.1853 486.412 71.908 486.071 71.556C485.74 71.1933 485.484 70.772 485.303 70.292C485.121 69.8013 485.031 69.2733 485.031 68.708C485.031 68.1427 485.127 67.62 485.319 67.14C485.521 66.6493 485.793 66.228 486.135 65.876C486.487 65.5133 486.903 65.2307 487.383 65.028C487.863 64.8253 488.385 64.724 488.951 64.724C489.623 64.724 490.188 64.8413 490.647 65.076C491.116 65.3107 491.5 65.62 491.799 66.004C492.097 66.3773 492.311 66.804 492.439 67.284C492.577 67.7533 492.647 68.2333 492.647 68.724V69.236H486.567ZM491.111 68.084C491.1 67.764 491.047 67.4707 490.951 67.204C490.865 66.9373 490.732 66.708 490.551 66.516C490.369 66.3133 490.14 66.1587 489.863 66.052C489.596 65.9347 489.281 65.876 488.919 65.876C488.567 65.876 488.241 65.9453 487.943 66.084C487.655 66.212 487.409 66.3827 487.207 66.596C487.004 66.8093 486.844 67.0493 486.727 67.316C486.62 67.572 486.567 67.828 486.567 68.084H491.111ZM500.518 61.172V68.116C500.518 68.468 500.566 68.836 500.662 69.22C500.758 69.5933 500.918 69.94 501.142 70.26C501.366 70.58 501.66 70.8413 502.022 71.044C502.385 71.2467 502.833 71.348 503.366 71.348C503.9 71.348 504.348 71.2467 504.71 71.044C505.073 70.8413 505.366 70.58 505.59 70.26C505.814 69.94 505.974 69.5933 506.07 69.22C506.166 68.836 506.214 68.468 506.214 68.116V61.172H507.75V68.356C507.75 69.0173 507.638 69.62 507.414 70.164C507.19 70.6973 506.881 71.1613 506.486 71.556C506.092 71.9507 505.628 72.2547 505.094 72.468C504.561 72.6813 503.985 72.788 503.366 72.788C502.748 72.788 502.172 72.6813 501.638 72.468C501.105 72.2547 500.641 71.9507 500.246 71.556C499.852 71.1613 499.542 70.6973 499.318 70.164C499.094 69.62 498.982 69.0173 498.982 68.356V61.172H500.518ZM510.088 64.916H511.528V66.084H511.56C511.741 65.6787 512.056 65.3533 512.504 65.108C512.952 64.852 513.469 64.724 514.056 64.724C514.419 64.724 514.765 64.7827 515.096 64.9C515.437 65.0067 515.731 65.1773 515.976 65.412C516.232 65.6467 516.435 65.9507 516.584 66.324C516.733 66.6867 516.808 67.1187 516.808 67.62V72.5H515.368V68.02C515.368 67.668 515.32 67.3693 515.224 67.124C515.128 66.868 515 66.6653 514.84 66.516C514.68 66.356 514.493 66.244 514.28 66.18C514.077 66.1053 513.864 66.068 513.64 66.068C513.341 66.068 513.064 66.116 512.808 66.212C512.552 66.308 512.328 66.4627 512.136 66.676C511.944 66.8787 511.795 67.14 511.688 67.46C511.581 67.78 511.528 68.1587 511.528 68.596V72.5H510.088V64.916ZM519.091 64.916H520.531V72.5H519.091V64.916ZM518.755 62.196C518.755 61.908 518.856 61.6627 519.059 61.46C519.272 61.2467 519.523 61.14 519.811 61.14C520.099 61.14 520.344 61.2467 520.547 61.46C520.76 61.6627 520.867 61.908 520.867 62.196C520.867 62.484 520.76 62.7347 520.547 62.948C520.344 63.1507 520.099 63.252 519.811 63.252C519.523 63.252 519.272 63.1507 519.059 62.948C518.856 62.7347 518.755 62.484 518.755 62.196ZM526.886 66.164H524.822V69.604C524.822 69.8173 524.828 70.0307 524.838 70.244C524.849 70.4467 524.886 70.6333 524.95 70.804C525.025 70.964 525.132 71.0973 525.27 71.204C525.42 71.3 525.633 71.348 525.91 71.348C526.081 71.348 526.257 71.332 526.438 71.3C526.62 71.268 526.785 71.2093 526.934 71.124V72.436C526.764 72.532 526.54 72.596 526.262 72.628C525.996 72.6707 525.788 72.692 525.638 72.692C525.084 72.692 524.652 72.6173 524.342 72.468C524.044 72.308 523.82 72.1053 523.67 71.86C523.532 71.6147 523.446 71.3427 523.414 71.044C523.393 70.7347 523.382 70.4253 523.382 70.116V66.164H521.718V64.916H523.382V62.788H524.822V64.916H526.886V66.164Z" fill="white"/>
<path d="M617.7 61.172H621.652C622.452 61.172 623.151 61.2627 623.748 61.444C624.356 61.6253 624.879 61.8707 625.316 62.18C625.764 62.4787 626.132 62.8253 626.42 63.22C626.719 63.6147 626.953 64.02 627.124 64.436C627.295 64.852 627.417 65.268 627.492 65.684C627.567 66.1 627.604 66.484 627.604 66.836C627.604 67.5613 627.471 68.2653 627.204 68.948C626.937 69.62 626.543 70.2227 626.02 70.756C625.497 71.2787 624.847 71.7 624.068 72.02C623.3 72.34 622.409 72.5 621.396 72.5H617.7V61.172ZM619.236 71.06H621.172C621.823 71.06 622.436 70.9747 623.012 70.804C623.599 70.6227 624.111 70.356 624.548 70.004C624.985 69.652 625.332 69.2147 625.588 68.692C625.844 68.1587 625.972 67.54 625.972 66.836C625.972 66.4733 625.913 66.052 625.796 65.572C625.679 65.0813 625.455 64.6173 625.124 64.18C624.804 63.7427 624.356 63.3747 623.78 63.076C623.204 62.7667 622.457 62.612 621.54 62.612H619.236V71.06ZM630.535 69.236C630.535 69.5667 630.605 69.8707 630.743 70.148C630.893 70.4147 631.085 70.644 631.319 70.836C631.554 71.028 631.826 71.1773 632.135 71.284C632.445 71.3907 632.765 71.444 633.095 71.444C633.543 71.444 633.933 71.3427 634.263 71.14C634.594 70.9267 634.898 70.6493 635.175 70.308L636.263 71.14C635.463 72.1747 634.343 72.692 632.903 72.692C632.306 72.692 631.762 72.5907 631.271 72.388C630.791 72.1853 630.381 71.908 630.039 71.556C629.709 71.1933 629.453 70.772 629.271 70.292C629.09 69.8013 628.999 69.2733 628.999 68.708C628.999 68.1427 629.095 67.62 629.287 67.14C629.49 66.6493 629.762 66.228 630.103 65.876C630.455 65.5133 630.871 65.2307 631.351 65.028C631.831 64.8253 632.354 64.724 632.919 64.724C633.591 64.724 634.157 64.8413 634.615 65.076C635.085 65.3107 635.469 65.62 635.767 66.004C636.066 66.3773 636.279 66.804 636.407 67.284C636.546 67.7533 636.615 68.2333 636.615 68.724V69.236H630.535ZM635.079 68.084C635.069 67.764 635.015 67.4707 634.919 67.204C634.834 66.9373 634.701 66.708 634.519 66.516C634.338 66.3133 634.109 66.1587 633.831 66.052C633.565 65.9347 633.25 65.876 632.887 65.876C632.535 65.876 632.21 65.9453 631.911 66.084C631.623 66.212 631.378 66.3827 631.175 66.596C630.973 66.8093 630.813 67.0493 630.695 67.316C630.589 67.572 630.535 67.828 630.535 68.084H635.079ZM637.426 64.916H639.09L641.362 70.724L643.538 64.916H645.074L642.098 72.5H640.514L637.426 64.916ZM647.426 69.236C647.426 69.5667 647.495 69.8707 647.634 70.148C647.783 70.4147 647.975 70.644 648.21 70.836C648.445 71.028 648.717 71.1773 649.026 71.284C649.335 71.3907 649.655 71.444 649.986 71.444C650.434 71.444 650.823 71.3427 651.154 71.14C651.485 70.9267 651.789 70.6493 652.066 70.308L653.154 71.14C652.354 72.1747 651.234 72.692 649.794 72.692C649.197 72.692 648.653 72.5907 648.162 72.388C647.682 72.1853 647.271 71.908 646.93 71.556C646.599 71.1933 646.343 70.772 646.162 70.292C645.981 69.8013 645.89 69.2733 645.89 68.708C645.89 68.1427 645.986 67.62 646.178 67.14C646.381 66.6493 646.653 66.228 646.994 65.876C647.346 65.5133 647.762 65.2307 648.242 65.028C648.722 64.8253 649.245 64.724 649.81 64.724C650.482 64.724 651.047 64.8413 651.506 65.076C651.975 65.3107 652.359 65.62 652.658 66.004C652.957 66.3773 653.17 66.804 653.298 67.284C653.437 67.7533 653.506 68.2333 653.506 68.724V69.236H647.426ZM651.97 68.084C651.959 67.764 651.906 67.4707 651.81 67.204C651.725 66.9373 651.591 66.708 651.41 66.516C651.229 66.3133 650.999 66.1587 650.722 66.052C650.455 65.9347 650.141 65.876 649.778 65.876C649.426 65.876 649.101 65.9453 648.802 66.084C648.514 66.212 648.269 66.3827 648.066 66.596C647.863 66.8093 647.703 67.0493 647.586 67.316C647.479 67.572 647.426 67.828 647.426 68.084H651.97ZM655.341 60.404H656.781V72.5H655.341V60.404ZM660.24 68.708C660.24 69.092 660.299 69.4493 660.416 69.78C660.534 70.1 660.699 70.3773 660.912 70.612C661.126 70.836 661.387 71.0173 661.696 71.156C662.006 71.284 662.352 71.348 662.736 71.348C663.12 71.348 663.467 71.284 663.776 71.156C664.086 71.0173 664.347 70.836 664.56 70.612C664.774 70.3773 664.939 70.1 665.056 69.78C665.174 69.4493 665.232 69.092 665.232 68.708C665.232 68.324 665.174 67.972 665.056 67.652C664.939 67.3213 664.774 67.044 664.56 66.82C664.347 66.5853 664.086 66.404 663.776 66.276C663.467 66.1373 663.12 66.068 662.736 66.068C662.352 66.068 662.006 66.1373 661.696 66.276C661.387 66.404 661.126 66.5853 660.912 66.82C660.699 67.044 660.534 67.3213 660.416 67.652C660.299 67.972 660.24 68.324 660.24 68.708ZM658.704 68.708C658.704 68.1533 658.806 67.636 659.008 67.156C659.222 66.676 659.51 66.2547 659.872 65.892C660.235 65.5293 660.662 65.2467 661.152 65.044C661.643 64.8307 662.171 64.724 662.736 64.724C663.302 64.724 663.83 64.8307 664.32 65.044C664.811 65.2467 665.238 65.5293 665.6 65.892C665.963 66.2547 666.246 66.676 666.448 67.156C666.662 67.636 666.768 68.1533 666.768 68.708C666.768 69.2627 666.662 69.7853 666.448 70.276C666.246 70.756 665.963 71.1773 665.6 71.54C665.238 71.892 664.811 72.1747 664.32 72.388C663.83 72.5907 663.302 72.692 662.736 72.692C662.171 72.692 661.643 72.5907 661.152 72.388C660.662 72.1747 660.235 71.892 659.872 71.54C659.51 71.1773 659.222 70.756 659.008 70.276C658.806 69.7853 658.704 69.2627 658.704 68.708ZM668.572 64.916H670.012V66.004H670.044C670.322 65.5987 670.7 65.284 671.18 65.06C671.671 64.836 672.172 64.724 672.684 64.724C673.271 64.724 673.799 64.8253 674.268 65.028C674.748 65.2307 675.154 65.5133 675.484 65.876C675.826 66.2387 676.087 66.6653 676.268 67.156C676.45 67.636 676.54 68.1533 676.54 68.708C676.54 69.2733 676.45 69.8013 676.268 70.292C676.087 70.772 675.826 71.1933 675.484 71.556C675.154 71.908 674.748 72.1853 674.268 72.388C673.799 72.5907 673.271 72.692 672.684 72.692C672.14 72.692 671.628 72.58 671.148 72.356C670.668 72.1213 670.3 71.8067 670.044 71.412H670.012V77.012H668.572V64.916ZM672.508 66.068C672.124 66.068 671.778 66.1373 671.468 66.276C671.159 66.404 670.898 66.5853 670.684 66.82C670.471 67.044 670.306 67.3213 670.188 67.652C670.071 67.972 670.012 68.324 670.012 68.708C670.012 69.092 670.071 69.4493 670.188 69.78C670.306 70.1 670.471 70.3773 670.684 70.612C670.898 70.836 671.159 71.0173 671.468 71.156C671.778 71.284 672.124 71.348 672.508 71.348C672.892 71.348 673.239 71.284 673.548 71.156C673.858 71.0173 674.119 70.836 674.332 70.612C674.546 70.3773 674.711 70.1 674.828 69.78C674.946 69.4493 675.004 69.092 675.004 68.708C675.004 68.324 674.946 67.972 674.828 67.652C674.711 67.3213 674.546 67.044 674.332 66.82C674.119 66.5853 673.858 66.404 673.548 66.276C673.239 66.1373 672.892 66.068 672.508 66.068ZM679.442 69.236C679.442 69.5667 679.511 69.8707 679.65 70.148C679.799 70.4147 679.991 70.644 680.226 70.836C680.46 71.028 680.732 71.1773 681.042 71.284C681.351 71.3907 681.671 71.444 682.002 71.444C682.45 71.444 682.839 71.3427 683.17 71.14C683.5 70.9267 683.804 70.6493 684.082 70.308L685.17 71.14C684.37 72.1747 683.25 72.692 681.81 72.692C681.212 72.692 680.668 72.5907 680.178 72.388C679.698 72.1853 679.287 71.908 678.946 71.556C678.615 71.1933 678.359 70.772 678.178 70.292C677.996 69.8013 677.906 69.2733 677.906 68.708C677.906 68.1427 678.002 67.62 678.194 67.14C678.396 66.6493 678.668 66.228 679.01 65.876C679.362 65.5133 679.778 65.2307 680.258 65.028C680.738 64.8253 681.26 64.724 681.826 64.724C682.498 64.724 683.063 64.8413 683.522 65.076C683.991 65.3107 684.375 65.62 684.674 66.004C684.972 66.3773 685.186 66.804 685.314 67.284C685.452 67.7533 685.522 68.2333 685.522 68.724V69.236H679.442ZM683.986 68.084C683.975 67.764 683.922 67.4707 683.826 67.204C683.74 66.9373 683.607 66.708 683.426 66.516C683.244 66.3133 683.015 66.1587 682.738 66.052C682.471 65.9347 682.156 65.876 681.794 65.876C681.442 65.876 681.116 65.9453 680.818 66.084C680.53 66.212 680.284 66.3827 680.082 66.596C679.879 66.8093 679.719 67.0493 679.602 67.316C679.495 67.572 679.442 67.828 679.442 68.084H683.986ZM687.244 64.916H688.684V66.084H688.716C688.812 65.8813 688.94 65.7 689.1 65.54C689.26 65.3693 689.436 65.2253 689.628 65.108C689.831 64.9907 690.05 64.9 690.284 64.836C690.519 64.7613 690.754 64.724 690.988 64.724C691.223 64.724 691.436 64.756 691.628 64.82L691.564 66.372C691.447 66.34 691.33 66.3133 691.212 66.292C691.095 66.2707 690.978 66.26 690.86 66.26C690.156 66.26 689.618 66.4573 689.244 66.852C688.871 67.2467 688.684 67.86 688.684 68.692V72.5H687.244V64.916ZM697.198 66.82C697.027 66.6067 696.814 66.4307 696.558 66.292C696.313 66.1427 696.009 66.068 695.646 66.068C695.305 66.068 695.006 66.1427 694.75 66.292C694.505 66.4307 694.382 66.6387 694.382 66.916C694.382 67.14 694.451 67.3213 694.59 67.46C694.739 67.5987 694.91 67.7107 695.102 67.796C695.305 67.8813 695.518 67.9453 695.742 67.988C695.966 68.0307 696.158 68.068 696.318 68.1C696.627 68.1747 696.915 68.2653 697.182 68.372C697.459 68.4787 697.694 68.6173 697.886 68.788C698.089 68.9587 698.243 69.1667 698.35 69.412C698.467 69.6573 698.526 69.956 698.526 70.308C698.526 70.7347 698.435 71.1027 698.254 71.412C698.073 71.7107 697.838 71.956 697.55 72.148C697.262 72.34 696.931 72.4787 696.558 72.564C696.195 72.6493 695.827 72.692 695.454 72.692C694.825 72.692 694.27 72.596 693.79 72.404C693.321 72.212 692.899 71.86 692.526 71.348L693.614 70.452C693.849 70.6867 694.11 70.8947 694.398 71.076C694.686 71.2573 695.038 71.348 695.454 71.348C695.635 71.348 695.817 71.332 695.998 71.3C696.19 71.2573 696.355 71.1987 696.494 71.124C696.643 71.0387 696.761 70.9373 696.846 70.82C696.942 70.692 696.99 70.548 696.99 70.388C696.99 70.1747 696.921 69.9987 696.782 69.86C696.654 69.7213 696.494 69.6147 696.302 69.54C696.121 69.4547 695.923 69.3907 695.71 69.348C695.507 69.2947 695.326 69.252 695.166 69.22C694.857 69.1453 694.563 69.06 694.286 68.964C694.009 68.868 693.763 68.74 693.55 68.58C693.337 68.42 693.166 68.2173 693.038 67.972C692.91 67.7267 692.846 67.4227 692.846 67.06C692.846 66.6653 692.926 66.324 693.086 66.036C693.257 65.7373 693.475 65.492 693.742 65.3C694.019 65.108 694.329 64.964 694.67 64.868C695.022 64.772 695.374 64.724 695.726 64.724C696.238 64.724 696.729 64.82 697.198 65.012C697.667 65.204 698.041 65.524 698.318 65.972L697.198 66.82Z" fill="white"/>
<path d="M796.844 63.62C796.524 63.204 796.119 62.884 795.628 62.66C795.137 62.436 794.631 62.324 794.108 62.324C793.468 62.324 792.887 62.4467 792.364 62.692C791.852 62.9267 791.409 63.252 791.036 63.668C790.673 64.084 790.391 64.5747 790.188 65.14C789.985 65.6947 789.884 66.292 789.884 66.932C789.884 67.5293 789.98 68.0947 790.172 68.628C790.364 69.1613 790.641 69.6307 791.004 70.036C791.367 70.4413 791.809 70.7613 792.332 70.996C792.855 71.2307 793.447 71.348 794.108 71.348C794.759 71.348 795.329 71.2147 795.82 70.948C796.311 70.6813 796.727 70.308 797.068 69.828L798.364 70.804C798.279 70.9213 798.129 71.092 797.916 71.316C797.703 71.5293 797.42 71.748 797.068 71.972C796.716 72.1853 796.289 72.372 795.788 72.532C795.297 72.7027 794.727 72.788 794.076 72.788C793.18 72.788 792.369 72.6173 791.644 72.276C790.929 71.9347 790.316 71.4867 789.804 70.932C789.303 70.3773 788.919 69.7533 788.652 69.06C788.385 68.356 788.252 67.6467 788.252 66.932C788.252 66.0573 788.396 65.252 788.684 64.516C788.972 63.7693 789.372 63.1293 789.884 62.596C790.407 62.052 791.031 61.6307 791.756 61.332C792.481 61.0333 793.281 60.884 794.156 60.884C794.903 60.884 795.633 61.028 796.348 61.316C797.073 61.604 797.665 62.0467 798.124 62.644L796.844 63.62ZM801.022 68.708C801.022 69.092 801.08 69.4493 801.198 69.78C801.315 70.1 801.48 70.3773 801.694 70.612C801.907 70.836 802.168 71.0173 802.478 71.156C802.787 71.284 803.134 71.348 803.518 71.348C803.902 71.348 804.248 71.284 804.558 71.156C804.867 71.0173 805.128 70.836 805.342 70.612C805.555 70.3773 805.72 70.1 805.838 69.78C805.955 69.4493 806.014 69.092 806.014 68.708C806.014 68.324 805.955 67.972 805.838 67.652C805.72 67.3213 805.555 67.044 805.342 66.82C805.128 66.5853 804.867 66.404 804.558 66.276C804.248 66.1373 803.902 66.068 803.518 66.068C803.134 66.068 802.787 66.1373 802.478 66.276C802.168 66.404 801.907 66.5853 801.694 66.82C801.48 67.044 801.315 67.3213 801.198 67.652C801.08 67.972 801.022 68.324 801.022 68.708ZM799.486 68.708C799.486 68.1533 799.587 67.636 799.79 67.156C800.003 66.676 800.291 66.2547 800.654 65.892C801.016 65.5293 801.443 65.2467 801.934 65.044C802.424 64.8307 802.952 64.724 803.518 64.724C804.083 64.724 804.611 64.8307 805.102 65.044C805.592 65.2467 806.019 65.5293 806.382 65.892C806.744 66.2547 807.027 66.676 807.23 67.156C807.443 67.636 807.55 68.1533 807.55 68.708C807.55 69.2627 807.443 69.7853 807.23 70.276C807.027 70.756 806.744 71.1773 806.382 71.54C806.019 71.892 805.592 72.1747 805.102 72.388C804.611 72.5907 804.083 72.692 803.518 72.692C802.952 72.692 802.424 72.5907 801.934 72.388C801.443 72.1747 801.016 71.892 800.654 71.54C800.291 71.1773 800.003 70.756 799.79 70.276C799.587 69.7853 799.486 69.2627 799.486 68.708ZM809.354 64.916H810.698V66.1H810.73C810.762 65.9933 810.842 65.86 810.97 65.7C811.108 65.54 811.279 65.3907 811.482 65.252C811.695 65.1027 811.94 64.98 812.218 64.884C812.506 64.7773 812.82 64.724 813.162 64.724C813.727 64.724 814.202 64.8413 814.586 65.076C814.97 65.3107 815.284 65.6627 815.53 66.132C815.775 65.6627 816.122 65.3107 816.57 65.076C817.018 64.8413 817.471 64.724 817.93 64.724C818.516 64.724 818.996 64.82 819.37 65.012C819.743 65.204 820.036 65.46 820.25 65.78C820.463 66.0893 820.607 66.4467 820.682 66.852C820.767 67.2467 820.81 67.6573 820.81 68.084V72.5H819.37V68.276C819.37 67.988 819.348 67.7107 819.306 67.444C819.274 67.1773 819.199 66.9427 819.082 66.74C818.964 66.5373 818.799 66.3773 818.586 66.26C818.372 66.132 818.09 66.068 817.738 66.068C817.044 66.068 816.548 66.2813 816.25 66.708C815.951 67.1347 815.802 67.684 815.802 68.356V72.5H814.362V68.532C814.362 68.1693 814.34 67.8387 814.298 67.54C814.266 67.2413 814.191 66.9853 814.074 66.772C813.967 66.548 813.807 66.3773 813.594 66.26C813.391 66.132 813.114 66.068 812.762 66.068C812.506 66.068 812.255 66.1213 812.01 66.228C811.775 66.324 811.567 66.4733 811.386 66.676C811.204 66.8787 811.06 67.14 810.954 67.46C810.847 67.7693 810.794 68.1373 810.794 68.564V72.5H809.354V64.916ZM822.979 64.916H824.323V66.1H824.355C824.387 65.9933 824.467 65.86 824.595 65.7C824.733 65.54 824.904 65.3907 825.107 65.252C825.32 65.1027 825.565 64.98 825.843 64.884C826.131 64.7773 826.445 64.724 826.787 64.724C827.352 64.724 827.827 64.8413 828.211 65.076C828.595 65.3107 828.909 65.6627 829.155 66.132C829.4 65.6627 829.747 65.3107 830.195 65.076C830.643 64.8413 831.096 64.724 831.555 64.724C832.141 64.724 832.621 64.82 832.995 65.012C833.368 65.204 833.661 65.46 833.875 65.78C834.088 66.0893 834.232 66.4467 834.307 66.852C834.392 67.2467 834.435 67.6573 834.435 68.084V72.5H832.995V68.276C832.995 67.988 832.973 67.7107 832.931 67.444C832.899 67.1773 832.824 66.9427 832.707 66.74C832.589 66.5373 832.424 66.3773 832.211 66.26C831.997 66.132 831.715 66.068 831.363 66.068C830.669 66.068 830.173 66.2813 829.875 66.708C829.576 67.1347 829.427 67.684 829.427 68.356V72.5H827.987V68.532C827.987 68.1693 827.965 67.8387 827.923 67.54C827.891 67.2413 827.816 66.9853 827.699 66.772C827.592 66.548 827.432 66.3773 827.219 66.26C827.016 66.132 826.739 66.068 826.387 66.068C826.131 66.068 825.88 66.1213 825.635 66.228C825.4 66.324 825.192 66.4733 825.011 66.676C824.829 66.8787 824.685 67.14 824.579 67.46C824.472 67.7693 824.419 68.1373 824.419 68.564V72.5H822.979V64.916ZM843.324 72.5H841.884V71.332H841.852C841.67 71.7373 841.356 72.068 840.908 72.324C840.46 72.5693 839.942 72.692 839.356 72.692C838.982 72.692 838.63 72.6333 838.3 72.516C837.969 72.4093 837.676 72.2387 837.42 72.004C837.174 71.7693 836.977 71.4707 836.828 71.108C836.678 70.7347 836.604 70.2973 836.604 69.796V64.916H838.044V69.396C838.044 69.748 838.092 70.052 838.188 70.308C838.284 70.5533 838.412 70.756 838.572 70.916C838.732 71.0653 838.913 71.1773 839.116 71.252C839.329 71.316 839.548 71.348 839.772 71.348C840.07 71.348 840.348 71.3 840.604 71.204C840.86 71.108 841.084 70.9587 841.276 70.756C841.468 70.5427 841.617 70.276 841.724 69.956C841.83 69.636 841.884 69.2573 841.884 68.82V64.916H843.324V72.5ZM845.494 64.916H846.934V66.084H846.966C847.148 65.6787 847.462 65.3533 847.91 65.108C848.358 64.852 848.876 64.724 849.462 64.724C849.825 64.724 850.172 64.7827 850.502 64.9C850.844 65.0067 851.137 65.1773 851.382 65.412C851.638 65.6467 851.841 65.9507 851.99 66.324C852.14 66.6867 852.214 67.1187 852.214 67.62V72.5H850.774V68.02C850.774 67.668 850.726 67.3693 850.63 67.124C850.534 66.868 850.406 66.6653 850.246 66.516C850.086 66.356 849.9 66.244 849.686 66.18C849.484 66.1053 849.27 66.068 849.046 66.068C848.748 66.068 848.47 66.116 848.214 66.212C847.958 66.308 847.734 66.4627 847.542 66.676C847.35 66.8787 847.201 67.14 847.094 67.46C846.988 67.78 846.934 68.1587 846.934 68.596V72.5H845.494V64.916ZM854.497 64.916H855.937V72.5H854.497V64.916ZM854.161 62.196C854.161 61.908 854.262 61.6627 854.465 61.46C854.678 61.2467 854.929 61.14 855.217 61.14C855.505 61.14 855.75 61.2467 855.953 61.46C856.166 61.6627 856.273 61.908 856.273 62.196C856.273 62.484 856.166 62.7347 855.953 62.948C855.75 63.1507 855.505 63.252 855.217 63.252C854.929 63.252 854.678 63.1507 854.465 62.948C854.262 62.7347 854.161 62.484 854.161 62.196ZM862.293 66.164H860.229V69.604C860.229 69.8173 860.234 70.0307 860.245 70.244C860.255 70.4467 860.293 70.6333 860.357 70.804C860.431 70.964 860.538 71.0973 860.677 71.204C860.826 71.3 861.039 71.348 861.317 71.348C861.487 71.348 861.663 71.332 861.845 71.3C862.026 71.268 862.191 71.2093 862.341 71.124V72.436C862.17 72.532 861.946 72.596 861.669 72.628C861.402 72.6707 861.194 72.692 861.045 72.692C860.49 72.692 860.058 72.6173 859.749 72.468C859.45 72.308 859.226 72.1053 859.077 71.86C858.938 71.6147 858.853 71.3427 858.821 71.044C858.799 70.7347 858.789 70.4253 858.789 70.116V66.164H857.125V64.916H858.789V62.788H860.229V64.916H862.293V66.164ZM863.239 64.916H864.903L867.159 70.836H867.191L869.335 64.916H870.887L867.286 74.132C867.159 74.4627 867.025 74.7613 866.887 75.028C866.748 75.3053 866.583 75.54 866.391 75.732C866.199 75.924 865.964 76.0733 865.687 76.18C865.42 76.2867 865.089 76.34 864.695 76.34C864.481 76.34 864.263 76.324 864.039 76.292C863.825 76.2707 863.617 76.2173 863.415 76.132L863.59 74.82C863.879 74.9373 864.167 74.996 864.455 74.996C864.679 74.996 864.865 74.964 865.015 74.9C865.175 74.8467 865.308 74.7613 865.414 74.644C865.532 74.5373 865.628 74.4093 865.703 74.26C865.777 74.1107 865.852 73.94 865.927 73.748L866.391 72.548L863.239 64.916Z" fill="white"/>
<path d="M960.236 70.868L964.78 66.356C964.94 66.2067 965.095 66.0467 965.244 65.876C965.393 65.6947 965.527 65.508 965.644 65.316C965.761 65.124 965.852 64.9213 965.916 64.708C965.991 64.4947 966.028 64.2707 966.028 64.036C966.028 63.7587 965.975 63.508 965.868 63.284C965.772 63.06 965.633 62.8733 965.452 62.724C965.281 62.564 965.073 62.4413 964.828 62.356C964.593 62.2707 964.343 62.228 964.076 62.228C963.521 62.228 963.063 62.3827 962.7 62.692C962.337 63.0013 962.108 63.428 962.012 63.972L960.348 63.828C960.423 63.3267 960.567 62.8947 960.78 62.532C961.004 62.1587 961.276 61.8493 961.596 61.604C961.927 61.3587 962.3 61.1773 962.716 61.06C963.143 60.9427 963.601 60.884 964.092 60.884C964.583 60.884 965.041 60.9533 965.468 61.092C965.905 61.22 966.284 61.4173 966.604 61.684C966.935 61.94 967.191 62.2653 967.372 62.66C967.564 63.044 967.66 63.4973 967.66 64.02C967.66 64.3933 967.601 64.7453 967.484 65.076C967.377 65.396 967.233 65.7 967.052 65.988C966.871 66.276 966.663 66.548 966.428 66.804C966.193 67.06 965.948 67.3107 965.692 67.556L961.964 71.156H967.66V72.5H960.236V70.868ZM972.327 70.404C972.689 70.7027 973.095 70.9373 973.543 71.108C974.001 71.268 974.503 71.348 975.047 71.348C975.697 71.348 976.284 71.2307 976.807 70.996C977.329 70.7507 977.777 70.4253 978.151 70.02C978.524 69.6147 978.812 69.14 979.015 68.596C979.217 68.0413 979.319 67.4547 979.319 66.836C979.319 66.26 979.233 65.7213 979.063 65.22C978.892 64.7187 978.647 64.2653 978.327 63.86L972.327 70.404ZM977.687 63.22C977.335 62.9427 976.935 62.724 976.487 62.564C976.049 62.404 975.569 62.324 975.047 62.324C974.396 62.324 973.809 62.4467 973.287 62.692C972.764 62.9267 972.316 63.2467 971.943 63.652C971.569 64.0573 971.281 64.5373 971.079 65.092C970.876 65.636 970.775 66.2173 970.775 66.836C970.775 67.3907 970.855 67.9133 971.015 68.404C971.175 68.8947 971.404 69.3373 971.703 69.732L977.687 63.22ZM969.271 72.372L970.631 70.884C970.151 70.3507 969.783 69.7427 969.527 69.06C969.271 68.3773 969.143 67.636 969.143 66.836C969.143 65.9933 969.287 65.2093 969.575 64.484C969.873 63.7587 970.279 63.1293 970.791 62.596C971.313 62.0627 971.937 61.6467 972.663 61.348C973.388 61.0387 974.183 60.884 975.047 60.884C975.761 60.884 976.428 60.9907 977.047 61.204C977.665 61.4173 978.225 61.716 978.727 62.1L980.055 60.66L980.727 61.268L979.399 62.708C979.889 63.2307 980.268 63.844 980.535 64.548C980.812 65.252 980.951 66.0147 980.951 66.836C980.951 67.6787 980.801 68.4627 980.503 69.188C980.215 69.9133 979.809 70.5427 979.287 71.076C978.775 71.6093 978.156 72.0307 977.431 72.34C976.705 72.6387 975.911 72.788 975.047 72.788C974.311 72.788 973.628 72.6813 972.999 72.468C972.369 72.244 971.804 71.9293 971.303 71.524L969.959 72.98L969.271 72.372ZM985.831 67.668L981.543 61.172H983.511L986.599 66.148L989.783 61.172H991.655L987.367 67.668V72.5H985.831V67.668ZM997.409 61.172H1001.35C1001.84 61.172 1002.29 61.2307 1002.71 61.348C1003.13 61.4653 1003.49 61.6413 1003.79 61.876C1004.1 62.1 1004.34 62.3933 1004.51 62.756C1004.69 63.108 1004.79 63.524 1004.79 64.004C1004.79 64.6547 1004.6 65.188 1004.24 65.604C1003.88 66.0093 1003.41 66.308 1002.83 66.5V66.532C1003.17 66.5533 1003.49 66.644 1003.79 66.804C1004.09 66.9533 1004.35 67.156 1004.56 67.412C1004.79 67.6573 1004.96 67.9453 1005.09 68.276C1005.22 68.6067 1005.28 68.964 1005.28 69.348C1005.28 69.86 1005.17 70.3133 1004.96 70.708C1004.76 71.092 1004.48 71.4173 1004.11 71.684C1003.75 71.9507 1003.33 72.1533 1002.85 72.292C1002.37 72.4307 1001.85 72.5 1001.3 72.5H997.409V61.172ZM998.945 65.876H1001.04C1001.33 65.876 1001.6 65.8493 1001.86 65.796C1002.11 65.732 1002.34 65.6307 1002.53 65.492C1002.72 65.3533 1002.87 65.1773 1002.98 64.964C1003.09 64.7507 1003.15 64.4893 1003.15 64.18C1003.15 63.732 1003.01 63.3427 1002.72 63.012C1002.43 62.6813 1001.98 62.516 1001.36 62.516H998.945V65.876ZM998.945 71.156H1001.2C1001.44 71.156 1001.69 71.1347 1001.97 71.092C1002.26 71.0387 1002.52 70.9427 1002.77 70.804C1003.01 70.6547 1003.22 70.4573 1003.39 70.212C1003.56 69.9667 1003.65 69.6413 1003.65 69.236C1003.65 68.564 1003.43 68.0627 1002.99 67.732C1002.56 67.3907 1001.96 67.22 1001.22 67.22H998.945V71.156ZM1007.23 60.404H1008.67V72.5H1007.23V60.404ZM1012.13 68.708C1012.13 69.092 1012.19 69.4493 1012.31 69.78C1012.42 70.1 1012.59 70.3773 1012.8 70.612C1013.02 70.836 1013.28 71.0173 1013.59 71.156C1013.9 71.284 1014.24 71.348 1014.63 71.348C1015.01 71.348 1015.36 71.284 1015.67 71.156C1015.98 71.0173 1016.24 70.836 1016.45 70.612C1016.66 70.3773 1016.83 70.1 1016.95 69.78C1017.06 69.4493 1017.12 69.092 1017.12 68.708C1017.12 68.324 1017.06 67.972 1016.95 67.652C1016.83 67.3213 1016.66 67.044 1016.45 66.82C1016.24 66.5853 1015.98 66.404 1015.67 66.276C1015.36 66.1373 1015.01 66.068 1014.63 66.068C1014.24 66.068 1013.9 66.1373 1013.59 66.276C1013.28 66.404 1013.02 66.5853 1012.8 66.82C1012.59 67.044 1012.42 67.3213 1012.31 67.652C1012.19 67.972 1012.13 68.324 1012.13 68.708ZM1010.6 68.708C1010.6 68.1533 1010.7 67.636 1010.9 67.156C1011.11 66.676 1011.4 66.2547 1011.76 65.892C1012.13 65.5293 1012.55 65.2467 1013.04 65.044C1013.53 64.8307 1014.06 64.724 1014.63 64.724C1015.19 64.724 1015.72 64.8307 1016.21 65.044C1016.7 65.2467 1017.13 65.5293 1017.49 65.892C1017.85 66.2547 1018.14 66.676 1018.34 67.156C1018.55 67.636 1018.66 68.1533 1018.66 68.708C1018.66 69.2627 1018.55 69.7853 1018.34 70.276C1018.14 70.756 1017.85 71.1773 1017.49 71.54C1017.13 71.892 1016.7 72.1747 1016.21 72.388C1015.72 72.5907 1015.19 72.692 1014.63 72.692C1014.06 72.692 1013.53 72.5907 1013.04 72.388C1012.55 72.1747 1012.13 71.892 1011.76 71.54C1011.4 71.1773 1011.11 70.756 1010.9 70.276C1010.7 69.7853 1010.6 69.2627 1010.6 68.708ZM1028.06 72.436C1028.06 73.012 1027.96 73.5347 1027.76 74.004C1027.57 74.484 1027.29 74.8947 1026.93 75.236C1026.56 75.588 1026.13 75.86 1025.62 76.052C1025.1 76.244 1024.54 76.34 1023.92 76.34C1023.19 76.34 1022.53 76.2387 1021.92 76.036C1021.32 75.8333 1020.75 75.4813 1020.21 74.98L1021.18 73.764C1021.56 74.1693 1021.96 74.4733 1022.4 74.676C1022.84 74.8893 1023.33 74.996 1023.89 74.996C1024.42 74.996 1024.86 74.916 1025.22 74.756C1025.57 74.6067 1025.84 74.4093 1026.05 74.164C1026.26 73.9187 1026.41 73.636 1026.5 73.316C1026.58 73.0067 1026.62 72.692 1026.62 72.372V71.252H1026.58C1026.3 71.7107 1025.92 72.052 1025.44 72.276C1024.97 72.4893 1024.47 72.596 1023.95 72.596C1023.4 72.596 1022.88 72.5 1022.4 72.308C1021.93 72.1053 1021.52 71.8333 1021.18 71.492C1020.84 71.14 1020.58 70.7293 1020.38 70.26C1020.19 69.78 1020.1 69.2627 1020.1 68.708C1020.1 68.1533 1020.19 67.636 1020.37 67.156C1020.55 66.6653 1020.8 66.2387 1021.14 65.876C1021.48 65.5133 1021.88 65.2307 1022.35 65.028C1022.83 64.8253 1023.36 64.724 1023.95 64.724C1024.46 64.724 1024.96 64.836 1025.44 65.06C1025.93 65.284 1026.31 65.5987 1026.59 66.004H1026.62V64.916H1028.06V72.436ZM1024.13 66.068C1023.74 66.068 1023.4 66.1373 1023.09 66.276C1022.78 66.404 1022.52 66.5853 1022.3 66.82C1022.09 67.044 1021.92 67.3213 1021.81 67.652C1021.69 67.972 1021.63 68.324 1021.63 68.708C1021.63 69.476 1021.86 70.0947 1022.3 70.564C1022.75 71.0227 1023.36 71.252 1024.13 71.252C1024.9 71.252 1025.5 71.0227 1025.95 70.564C1026.4 70.0947 1026.62 69.476 1026.62 68.708C1026.62 68.324 1026.56 67.972 1026.45 67.652C1026.33 67.3213 1026.16 67.044 1025.95 66.82C1025.74 66.5853 1025.48 66.404 1025.17 66.276C1024.86 66.1373 1024.51 66.068 1024.13 66.068Z" fill="white"/>
<path d="M1042.33 65.9994L1034.94 73.416C1034.77 73.5827 1034.57 73.666 1034.34 73.666C1034.11 73.666 1033.92 73.5827 1033.75 73.416C1033.58 73.2494 1033.5 73.0513 1033.5 72.8219C1033.5 72.5924 1033.58 72.3946 1033.75 72.2285L1041.17 64.8327H1034.83C1034.6 64.8327 1034.4 64.7527 1034.24 64.5927C1034.08 64.4327 1034 64.2349 1034 63.9994C1034 63.7632 1034.08 63.5652 1034.24 63.4052C1034.4 63.2452 1034.6 63.1655 1034.83 63.166H1043.17C1043.4 63.166 1043.6 63.246 1043.76 63.406C1043.92 63.566 1044 63.7638 1044 63.9994V72.3327C1044 72.5688 1043.92 72.7669 1043.76 72.9269C1043.6 73.0869 1043.4 73.1666 1043.17 73.166C1042.93 73.166 1042.73 73.086 1042.57 72.926C1042.41 72.766 1042.33 72.5682 1042.33 72.3327V65.9994Z" fill="white"/>
<path d="M112.681 48.6182C113.311 47.9888 113.175 46.9331 112.37 46.5552C109.918 45.4059 107.182 44.7637 104.296 44.7637C93.7802 44.7637 85.2556 53.2882 85.2556 63.8038C85.2556 66.6901 85.8978 69.4264 87.0472 71.8776C87.425 72.6834 88.4808 72.8188 89.1101 72.1895L93.3938 67.9057C93.7601 67.5394 93.8793 66.9985 93.7515 66.4965C93.5322 65.6354 93.4157 64.7332 93.4157 63.8038C93.4157 57.7949 98.2869 52.9237 104.296 52.9237C105.225 52.9237 106.127 53.0403 106.988 53.2595C107.49 53.3873 108.031 53.2682 108.398 52.9019L112.681 48.6182Z" fill="white"/>
<path d="M98.6448 74.1949C99.0621 73.7776 99.6978 73.6853 100.246 73.9051C101.497 74.4075 102.864 74.6839 104.296 74.6839C110.305 74.6839 115.176 69.8128 115.176 63.8038C115.176 62.3724 114.899 61.0054 114.397 59.7536C114.177 59.2059 114.27 58.5701 114.687 58.1528L118.772 54.0673C119.371 53.4688 120.368 53.5557 120.791 54.2885C122.41 57.088 123.336 60.3378 123.336 63.8038C123.336 74.3194 114.811 82.844 104.296 82.844C100.83 82.844 97.58 81.9179 94.7805 80.2995C94.0477 79.8759 93.9608 78.8789 94.5593 78.2804L98.6448 74.1949Z" fill="white"/>
<path d="M141.597 52.7988L141.597 65.0661C141.597 65.7244 141.617 66.4026 141.657 67.1007C141.717 67.7789 141.867 68.3973 142.106 68.9558C142.365 69.5143 142.764 69.9731 143.303 70.3321C143.841 70.6712 144.599 70.8408 145.577 70.8408C146.554 70.8408 147.302 70.6712 147.821 70.3321C148.359 69.9731 148.758 69.5143 149.018 68.9558C149.277 68.3973 149.426 67.7789 149.466 67.1007C149.526 66.4026 149.556 65.7244 149.556 65.0661L149.556 52.7988H155.391L155.391 65.874C155.391 69.3846 154.583 71.9478 152.967 73.5635C151.371 75.1792 148.908 75.987 145.577 75.987C142.246 75.987 139.772 75.1792 138.156 73.5635C136.541 71.9478 135.733 69.3846 135.733 65.874L135.733 52.7988H141.597Z" fill="white"/>
<path d="M160.131 75.3587L160.131 52.7988H165.995L176.826 66.5921L176.826 52.7988H182.661L182.661 75.3587H176.826L165.995 61.5655L165.995 75.3587H160.131Z" fill="white"/>
<path d="M193.257 52.7988L193.257 75.3587H187.392L187.392 52.7988H193.257Z" fill="white"/>
<path d="M206.527 57.7656L206.527 75.3587H200.662L200.662 57.7656H195.845L195.845 52.7988H211.344L211.344 57.7656H206.527Z" fill="white"/>
<defs>
<clipPath id="clip0_7834_15310">
<rect width="28" height="27" fill="white" transform="translate(1482 51)"/>
</clipPath>
</defs>
</svg>
