<svg width="180" height="180" viewBox="0 0 180 180" fill="none" xmlns="http://www.w3.org/2000/svg">
<rect width="180" height="180" rx="42" fill="white"/>
<path d="M118.621 40.9968C119.109 40.5002 119.004 39.6774 118.398 39.3346C110.136 34.6616 100.623 32 90.5 32C58.7436 32 33 58.1913 33 90.5C33 100.787 35.6099 110.454 40.1927 118.853C40.5332 119.477 41.3773 119.584 41.8755 119.077L58.922 101.734C59.2053 101.446 59.3016 101.024 59.1811 100.638C58.182 97.4405 57.6429 94.0343 57.6429 90.5C57.6429 72.0379 72.3535 57.0714 90.5 57.0714C93.9634 57.0714 97.3017 57.6166 100.436 58.6273C100.831 58.7546 101.266 58.6539 101.557 58.3581L118.621 40.9968Z" fill="black"/>
<path d="M74.9908 120.842C75.3222 120.505 75.834 120.426 76.2585 120.634C80.5669 122.745 85.3976 123.929 90.5 123.929C108.646 123.929 123.357 108.962 123.357 90.5C123.357 85.2968 122.189 80.3712 120.104 75.98C119.907 75.5642 119.983 75.0677 120.306 74.7394L136.77 57.989C137.244 57.5067 138.041 57.5765 138.411 58.1426C144.47 67.4098 148 78.5355 148 90.5C148 122.809 122.256 149 90.5 149C78.7274 149 67.7811 145.401 58.6664 139.224C58.1186 138.853 58.0504 138.077 58.5143 137.606L74.9908 120.842Z" fill="black"/>
<path d="M25.3188 29L75.8963 96.6258L25 151.609H36.4556L81.0163 103.469L117.019 151.609H156L102.576 80.1799L149.95 29H138.494L97.4578 73.3342L64.3 29H25.3188ZM42.1648 37.4373H60.0726L139.152 143.172H121.244L42.1648 37.4373Z" fill="black"/>
<path d="M70.5 75.5L50 47.5L60 37.5L85.5 71.5L70.5 75.5Z" fill="white"/>
</svg>
