<svg width="668" height="227" viewBox="0 0 668 227" fill="none" xmlns="http://www.w3.org/2000/svg">
<path d="M660.707 226.707C660.317 227.098 659.683 227.098 659.293 226.707L652.929 220.343C652.538 219.953 652.538 219.319 652.929 218.929C653.319 218.538 653.953 218.538 654.343 218.929L660 224.586L665.657 218.929C666.047 218.538 666.681 218.538 667.071 218.929C667.462 219.319 667.462 219.953 667.071 220.343L660.707 226.707ZM649.08 149.863L649.534 148.972L649.08 149.863ZM657.82 158.604L658.711 158.15L657.82 158.604ZM11.9202 145.504L12.3741 144.613L11.9202 145.504ZM3.17987 136.763L4.07086 136.309L3.17987 136.763ZM659 226V222.14H661V226H659ZM659 214.421V206.701H661V214.421H659ZM659 198.982V191.263H661V198.982H659ZM659 183.543V179.684H661V183.543H659ZM659 179.684C659 177.74 659 175.97 658.989 174.346L660.989 174.332C661 175.964 661 177.742 661 179.684H659ZM658.402 163.848C658.091 161.953 657.624 160.422 656.929 159.058L658.711 158.15C659.522 159.741 660.041 161.48 660.375 163.525L658.402 163.848ZM656.929 159.058C656.475 158.167 655.954 157.317 655.371 156.516L656.989 155.34C657.633 156.226 658.209 157.165 658.711 158.15L656.929 159.058ZM651.168 152.312C650.366 151.73 649.517 151.208 648.626 150.754L649.534 148.972C650.519 149.474 651.458 150.051 652.344 150.694L651.168 152.312ZM648.626 150.754C647.262 150.059 645.73 149.592 643.835 149.282L644.159 147.308C646.203 147.643 647.943 148.162 649.534 148.972L648.626 150.754ZM633.338 148.695C631.714 148.684 629.943 148.684 628 148.684V146.684C629.942 146.684 631.72 146.684 633.352 146.695L633.338 148.695ZM628 148.684H623.98V146.684H628V148.684ZM615.939 148.684H607.899V146.684H615.939V148.684ZM599.858 148.684H591.818V146.684H599.858V148.684ZM583.777 148.684H575.736V146.684H583.777V148.684ZM567.696 148.684H559.655V146.684H567.696V148.684ZM551.615 148.684H543.574V146.684H551.615V148.684ZM535.534 148.684H527.493V146.684H535.534V148.684ZM519.453 148.684H511.412V146.684H519.453V148.684ZM503.372 148.684H495.331V146.684H503.372V148.684ZM487.291 148.684H479.25V146.684H487.291V148.684ZM471.209 148.684H463.169V146.684H471.209V148.684ZM455.128 148.684H447.088V146.684H455.128V148.684ZM439.047 148.684H431.007V146.684H439.047V148.684ZM422.966 148.684H414.926V146.684H422.966V148.684ZM406.885 148.684H398.845V146.684H406.885V148.684ZM390.804 148.684H382.763V146.684H390.804V148.684ZM374.723 148.684H366.682V146.684H374.723V148.684ZM358.642 148.684H350.601V146.684H358.642V148.684ZM342.561 148.684H334.52V146.684H342.561V148.684ZM326.48 148.684H318.439V146.684H326.48V148.684ZM310.399 148.684H302.358V146.684H310.399V148.684ZM294.318 148.684H286.277V146.684H294.318V148.684ZM278.237 148.684H270.196V146.684H278.237V148.684ZM262.156 148.684H254.115V146.684H262.156V148.684ZM246.074 148.684H238.034V146.684H246.074V148.684ZM229.993 148.684H221.953V146.684H229.993V148.684ZM213.912 148.684H205.872V146.684H213.912V148.684ZM197.831 148.684H189.791V146.684H197.831V148.684ZM181.75 148.684H173.71V146.684H181.75V148.684ZM165.669 148.684H157.629V146.684H165.669V148.684ZM149.588 148.684H141.548V146.684H149.588V148.684ZM133.507 148.684H125.467V146.684H133.507V148.684ZM117.426 148.684H109.386V146.684H117.426V148.684ZM101.345 148.684H93.3044V146.684H101.345V148.684ZM85.2639 148.684H77.2234V146.684H85.2639V148.684ZM69.1829 148.684H61.1423V146.684H69.1829V148.684ZM53.1018 148.684H45.0613V146.684H53.1018V148.684ZM37.0208 148.684H33V146.684H37.0208V148.684ZM33 148.684C31.0583 148.684 29.2805 148.684 27.6483 148.672L27.6623 146.672C29.2861 146.684 31.0565 146.684 33 146.684V148.684ZM16.8412 148.059C14.7969 147.724 13.0574 147.205 11.4662 146.395L12.3741 144.613C13.7384 145.308 15.2698 145.775 17.1646 146.085L16.8412 148.059ZM11.4662 146.395C10.4813 145.893 9.54242 145.317 8.65643 144.673L9.83203 143.055C10.6335 143.637 11.4831 144.159 12.3741 144.613L11.4662 146.395ZM4.01062 140.027C3.36694 139.141 2.79065 138.202 2.28882 137.217L4.07086 136.309C4.52484 137.2 5.04626 138.05 5.6286 138.851L4.01062 140.027ZM2.28882 137.217C1.47809 135.626 0.959412 133.887 0.624573 131.842L2.59827 131.519C2.90863 133.414 3.37573 134.945 4.07086 136.309L2.28882 137.217ZM0.0113525 121.035C-6.10352e-05 119.403 0 117.625 0 115.684H2C2 117.627 2 119.397 2.01129 121.021L0.0113525 121.035ZM0 115.684V111.552H2V115.684H0ZM0 103.289V95.0258H2V103.289H0ZM0 86.7627V78.4995H2V86.7627H0ZM0 70.2364V61.9733H2V70.2364H0ZM0 53.7102V45.4471H2V53.7102H0ZM0 37.184V28.9209H2V37.184H0ZM0 20.6578V12.3947H2V20.6578H0ZM0 4.13157V0H2V4.13157H0Z" fill="#A7A7A7"/>
</svg>
