<svg width="48" height="48" viewBox="0 0 48 48" fill="none" xmlns="http://www.w3.org/2000/svg">
<path d="M26.306 22.4902C25.5898 22.4902 25.0244 23.108 25.0244 23.877C25.0244 24.6461 25.6024 25.2638 26.306 25.2638C27.0221 25.2638 27.5875 24.6461 27.5875 23.877C27.5875 23.108 27.0096 22.4902 26.306 22.4902ZM21.72 22.4902C21.0039 22.4902 20.4385 23.108 20.4385 23.877C20.4385 24.6461 21.0164 25.2638 21.72 25.2638C22.4362 25.2638 23.0016 24.6461 23.0016 23.877C23.0141 23.108 22.4362 22.4902 21.72 22.4902Z" fill="white"/>
<path d="M32.4118 12H15.5757C14.1559 12 13 13.1599 13 14.5845V31.4781C13 32.9027 14.1559 34.0625 15.5757 34.0625H29.8235L29.1576 31.7554L30.7658 33.2431L32.2861 34.6425L35 37V14.5845C34.9874 13.1599 33.8315 12 32.4118 12ZM27.562 28.3263C27.562 28.3263 27.1096 27.7842 26.7327 27.3177C28.3786 26.8512 29.0069 25.8301 29.0069 25.8301C28.4917 26.1705 28.0017 26.41 27.562 26.5739C26.9338 26.8386 26.3307 27.0025 25.7401 27.116C24.534 27.3429 23.4283 27.2799 22.486 27.1034C21.7698 26.9647 21.1542 26.7756 20.6391 26.5613C20.3501 26.4478 20.036 26.3091 19.7219 26.1326C19.6842 26.1074 19.6465 26.0948 19.6088 26.0696C19.5837 26.057 19.5711 26.0444 19.5585 26.0444C19.3324 25.9183 19.2067 25.8301 19.2067 25.8301C19.2067 25.8301 19.8098 26.826 21.4055 27.3051C21.0286 27.7842 20.5637 28.3389 20.5637 28.3389C17.787 28.2506 16.7316 26.4352 16.7316 26.4352C16.7316 22.4135 18.5408 19.1483 18.5408 19.1483C20.3501 17.7993 22.0588 17.8371 22.0588 17.8371L22.1845 17.9884C19.9229 18.6314 18.8926 19.6273 18.8926 19.6273C18.8926 19.6273 19.169 19.476 19.6339 19.2743C20.9783 18.6818 22.0463 18.5305 22.486 18.4801C22.5614 18.4675 22.6242 18.4549 22.6996 18.4549C23.466 18.354 24.333 18.3288 25.2376 18.4297C26.4312 18.5683 27.7127 18.9213 29.0194 19.6273C29.0194 19.6273 28.0268 18.6818 25.8909 18.0388L26.0668 17.8371C26.0668 17.8371 27.7881 17.7993 29.5848 19.1483C29.5848 19.1483 31.3941 22.4135 31.3941 26.4352C31.3941 26.4226 30.3387 28.238 27.562 28.3263Z" fill="white"/>
</svg>
