<svg width="80" height="80" viewBox="0 0 80 80" fill="none" xmlns="http://www.w3.org/2000/svg">
<path d="M46.6837 35.1113C44.7631 35.1113 43.2468 36.7669 43.2468 38.8279C43.2468 40.8889 44.7968 42.5445 46.6837 42.5445C48.6043 42.5445 50.1206 40.8889 50.1206 38.8279C50.1206 36.7669 48.5706 35.1113 46.6837 35.1113ZM34.385 35.1113C32.4644 35.1113 30.9481 36.7669 30.9481 38.8279C30.9481 40.8889 32.4981 42.5445 34.385 42.5445C36.3056 42.5445 37.8219 40.8889 37.8219 38.8279C37.8556 36.7669 36.3056 35.1113 34.385 35.1113Z" fill="white"/>
<path d="M63.0588 7H17.9075C14.0999 7 11 10.1084 11 13.9264V59.2012C11 63.0192 14.0999 66.1276 17.9075 66.1276H56.1176L54.3318 59.9445L58.6448 63.9314L62.7219 67.6818L70 74V13.9264C69.9663 10.1084 66.8664 7 63.0588 7ZM50.0525 50.7544C50.0525 50.7544 48.8395 49.3016 47.8287 48.0514C52.2427 46.8013 53.9275 44.0646 53.9275 44.0646C52.546 44.9768 51.2319 45.6188 50.0525 46.058C48.3678 46.7675 46.7504 47.2068 45.1668 47.5108C41.932 48.119 38.9669 47.9501 36.4397 47.4771C34.5191 47.1054 32.8681 46.5986 31.4866 46.0242C30.7116 45.7201 29.8692 45.3485 29.0268 44.8754C28.9258 44.8079 28.8247 44.7741 28.7236 44.7065C28.6562 44.6727 28.6225 44.6389 28.5888 44.6389C27.9823 44.3011 27.6453 44.0646 27.6453 44.0646C27.6453 44.0646 29.2627 46.7337 33.542 48.0177C32.5311 49.3016 31.2844 50.7882 31.2844 50.7882C23.8378 50.5517 21.0074 45.6863 21.0074 45.6863C21.0074 34.9082 25.8595 26.1573 25.8595 26.1573C30.7116 22.5421 35.2941 22.6435 35.2941 22.6435L35.6311 23.0489C29.566 24.7721 26.803 27.4413 26.803 27.4413C26.803 27.4413 27.5443 27.0358 28.791 26.4952C32.3963 24.9072 35.2604 24.5018 36.4397 24.3666C36.6419 24.3328 36.8104 24.299 37.0126 24.299C39.068 24.0287 41.3929 23.9612 43.819 24.2315C47.02 24.6031 50.4569 25.5492 53.9612 27.4413C53.9612 27.4413 51.2993 24.9072 45.5711 23.1841L46.0428 22.6435C46.0428 22.6435 50.659 22.5421 55.4774 26.1573C55.4774 26.1573 60.3295 34.9082 60.3295 45.6863C60.3295 45.6525 57.4991 50.5179 50.0525 50.7544Z" fill="white"/>
</svg>
