<svg width="24" height="24" viewBox="0 0 24 24" fill="none" xmlns="http://www.w3.org/2000/svg">
<path fill-rule="evenodd" clip-rule="evenodd" d="M14.375 2.25H6.875C6.37772 2.25 5.90081 2.44754 5.54917 2.79917C5.19754 3.15081 5 3.62772 5 4.125V19.125C5 19.6223 5.19754 20.0992 5.54917 20.4508C5.90081 20.8025 6.37772 21 6.875 21H18.125C18.6223 21 19.0992 20.8025 19.4508 20.4508C19.8025 20.0992 20 19.6223 20 19.125V7.875L14.375 2.25ZM9.83281 16.7381C9.43344 17.07 8.82687 17.2266 8.08531 17.2266C7.64 17.2266 7.32594 17.1984 7.11219 17.1703V13.4475C7.4956 13.3923 7.88265 13.3663 8.27 13.3697C8.99 13.3697 9.45687 13.4991 9.82156 13.7747C10.2153 14.0672 10.4628 14.5341 10.4628 15.2016C10.4628 15.9281 10.1984 16.4288 9.83281 16.7381ZM12.6359 17.25C11.5109 17.25 10.8538 16.4006 10.8538 15.3206C10.8538 14.1853 11.5784 13.3369 12.6978 13.3369C13.8613 13.3369 14.4969 14.2078 14.4969 15.2541C14.4959 16.4963 13.7422 17.25 12.6359 17.25ZM17 16.5356C17.2578 16.5356 17.5447 16.4784 17.7144 16.4119L17.8438 17.0803C17.6863 17.1591 17.3319 17.2434 16.8716 17.2434C15.5619 17.2434 14.8869 16.4288 14.8869 15.3488C14.8869 14.0559 15.8084 13.3369 16.9559 13.3369C17.4003 13.3369 17.7369 13.4269 17.8887 13.5056L17.7144 14.1863C17.4861 14.0919 17.2413 14.0441 16.9944 14.0456C16.3138 14.0456 15.785 14.4563 15.785 15.3C15.785 16.0584 16.235 16.5356 17 16.5356ZM14 8V3L19 8H14ZM12.6744 14.0183C12.096 14.0183 11.7585 14.5686 11.7585 15.3055C11.7585 16.047 12.1063 16.5711 12.68 16.5711C13.2585 16.5711 13.5904 16.0199 13.5904 15.283C13.5904 14.6024 13.2641 14.0183 12.6744 14.0183ZM7.97277 14.0607C8.0459 14.0438 8.16965 14.0269 8.35996 14.0269C9.09683 14.0269 9.55715 14.4432 9.55152 15.2307C9.55152 16.1363 9.04621 16.5628 8.26996 16.5572H8.26994C8.16401 16.5572 8.04589 16.5572 7.97277 16.5403V14.0607Z" fill="#E4E4E4"/>
</svg>
