<svg width="24" height="24" viewBox="0 0 24 24" fill="none" xmlns="http://www.w3.org/2000/svg">
<path d="M19.4245 4.58156C18.4513 3.59867 17.2934 2.81776 16.0174 2.28371C14.7414 1.74966 13.3725 1.47298 11.9893 1.46958C10.6061 1.46617 9.23579 1.73611 7.9572 2.26387C6.67862 2.79164 5.51691 3.56683 4.53882 4.54492C3.56073 5.52301 2.78553 6.68472 2.25777 7.96331C1.73 9.2419 1.46007 10.6122 1.46347 11.9954C1.46688 13.3786 1.74355 14.7475 2.27761 16.0235C2.81166 17.2995 3.59256 18.4574 4.57546 19.4306C5.54872 20.4135 6.7066 21.1944 7.98257 21.7285C9.25855 22.2625 10.6275 22.5392 12.0107 22.5426C13.3939 22.546 14.7642 22.2761 16.0428 21.7483C17.3214 21.2205 18.4831 20.4454 19.4612 19.4673C20.4392 18.4892 21.2144 17.3275 21.7422 16.0489C22.27 14.7703 22.5399 13.4 22.5365 12.0168C22.5331 10.6336 22.2564 9.26465 21.7224 7.98868C21.1883 6.7127 20.4074 5.55482 19.4245 4.58156ZM2.99999 12.0061C2.99963 11.2095 3.10525 10.4165 3.31405 9.64781C3.65811 10.3884 4.1578 11.0283 4.49764 11.7881C4.93686 12.765 6.11624 12.4941 6.63702 13.35C7.09921 14.1098 6.60561 15.0708 6.95155 15.8658C7.2028 16.4428 7.7953 16.5689 8.20405 16.9908C8.62171 17.4164 8.6128 17.9995 8.67655 18.5545C8.74843 19.2066 8.86512 19.853 9.02577 20.4891C9.02577 20.4937 9.02577 20.4989 9.02952 20.5036C5.52186 19.2717 2.99999 15.9281 2.99999 12.0061ZM12 21.0061C11.4974 21.006 10.9956 20.9639 10.5 20.8805C10.5051 20.7534 10.5075 20.6348 10.5201 20.5523C10.634 19.807 11.0072 19.0781 11.5106 18.5203C12.008 17.97 12.6895 17.5978 13.1095 16.9734C13.5211 16.3641 13.6444 15.5437 13.4747 14.8317C13.2248 13.7798 11.7956 13.4287 11.025 12.8583C10.582 12.5302 10.1878 12.023 9.60608 11.9817C9.33796 11.963 9.11342 12.0206 8.84764 11.9522C8.60389 11.8889 8.41264 11.7577 8.15296 11.7919C7.6678 11.8556 7.36171 12.3741 6.84046 12.3037C6.34592 12.2377 5.83639 11.6587 5.72389 11.1877C5.57952 10.582 6.05858 10.3856 6.57186 10.3317C6.78608 10.3092 7.02655 10.2848 7.23233 10.3636C7.50327 10.4639 7.63124 10.7292 7.87452 10.8633C8.33061 11.1136 8.42296 10.7137 8.35311 10.3087C8.24858 9.70218 8.12671 9.45515 8.66764 9.0375C9.04264 8.74968 9.36327 8.54156 9.30327 8.02453C9.26764 7.72078 9.10124 7.58344 9.25639 7.28109C9.37405 7.05093 9.69702 6.84328 9.90749 6.70593C10.4508 6.35156 12.2348 6.37781 11.5059 5.38593C11.2917 5.09484 10.8966 4.57453 10.5216 4.50328C10.0528 4.41468 9.84468 4.93781 9.51796 5.16843C9.18046 5.40703 8.52327 5.67797 8.1853 5.30906C7.73061 4.81265 8.48671 4.65 8.65405 4.30312C8.73139 4.1414 8.65405 3.91687 8.52374 3.70547C8.6928 3.63422 8.86467 3.56812 9.03936 3.50718C9.14884 3.58804 9.27871 3.63675 9.41436 3.64781C9.72796 3.66843 10.0237 3.49875 10.2975 3.7125C10.6012 3.94687 10.8201 4.24312 11.2233 4.31625C11.6133 4.38703 12.0262 4.15968 12.1228 3.76031C12.1814 3.5175 12.1228 3.26109 12.0666 3.01031C13.8197 3.0204 15.5312 3.54543 16.9884 4.52015C16.8947 4.48453 16.7826 4.48875 16.6444 4.55297C16.3598 4.68515 15.9567 5.02172 15.9234 5.35547C15.8855 5.73422 16.4442 5.78765 16.7095 5.78765C17.108 5.78765 17.5116 5.60953 17.3831 5.14922C17.3273 4.94953 17.2514 4.74187 17.1291 4.61625C17.4232 4.8203 17.7049 5.04162 17.9728 5.27906C17.9686 5.28328 17.9644 5.28703 17.9601 5.29172C17.6901 5.57297 17.3766 5.79562 17.1919 6.13781C17.0616 6.37875 16.9148 6.49312 16.6509 6.55547C16.5056 6.58968 16.3397 6.60234 16.2178 6.69984C15.8784 6.96703 16.0716 7.60922 16.3931 7.80187C16.7995 8.04515 17.4023 7.93078 17.7089 7.58343C17.9484 7.31156 18.0895 6.83953 18.5203 6.84C18.71 6.8396 18.8921 6.91386 19.0275 7.04672C19.2056 7.2314 19.1705 7.4039 19.2084 7.63453C19.2755 8.04422 19.6369 7.82203 19.8567 7.61531C20.017 7.9005 20.1616 8.19422 20.2898 8.49515C20.048 8.84343 19.8558 9.22312 19.274 8.81718C18.9258 8.5739 18.7116 8.22093 18.2742 8.11125C17.8922 8.0175 17.5008 8.115 17.1234 8.18015C16.6945 8.25468 16.1859 8.2875 15.8606 8.61234C15.5461 8.92547 15.3797 9.34453 15.045 9.65906C14.3976 10.2684 14.1244 10.9336 14.5434 11.7952C14.9466 12.6234 15.7898 13.073 16.6997 13.0139C17.5936 12.9544 18.5222 12.4359 18.4964 13.7348C18.487 14.1947 18.5831 14.513 18.7242 14.94C18.855 15.3337 18.8461 15.7153 18.8761 16.1217C18.9046 16.5976 18.979 17.0697 19.0983 17.5312C18.2581 18.613 17.1818 19.4885 15.9515 20.0907C14.7213 20.6929 13.3697 21.006 12 21.0061Z" fill="black"/>
</svg>
