<svg width="20" height="20" viewBox="0 0 20 20" fill="none" xmlns="http://www.w3.org/2000/svg">
<path d="M13.3333 6.99935L5.9375 14.416C5.77083 14.5827 5.57278 14.666 5.34333 14.666C5.11389 14.666 4.91611 14.5827 4.75 14.416C4.58333 14.2494 4.5 14.0513 4.5 13.8219C4.5 13.5924 4.58333 13.3946 4.75 13.2285L12.1667 5.83269H5.83333C5.59722 5.83269 5.39917 5.75269 5.23917 5.59269C5.07917 5.43269 4.99944 5.23491 5 4.99935C5 4.76324 5.08 4.56519 5.24 4.40519C5.4 4.24519 5.59778 4.16546 5.83333 4.16602H14.1667C14.4028 4.16602 14.6008 4.24602 14.7608 4.40602C14.9208 4.56602 15.0006 4.7638 15 4.99935V13.3327C15 13.5688 14.92 13.7669 14.76 13.9269C14.6 14.0869 14.4022 14.1666 14.1667 14.166C13.9306 14.166 13.7325 14.086 13.5725 13.926C13.4125 13.766 13.3328 13.5682 13.3333 13.3327V6.99935Z" fill="white"/>
</svg>
