<svg width="217" height="195" viewBox="0 0 217 195" fill="none" xmlns="http://www.w3.org/2000/svg">
<path d="M217 1C217 0.447715 216.552 0 216 0C215.448 0 215 0.447715 215 1H217ZM7.29289 194.707C7.68342 195.098 8.31658 195.098 8.70711 194.707L15.0711 188.343C15.4616 187.953 15.4616 187.319 15.0711 186.929C14.6805 186.538 14.0474 186.538 13.6569 186.929L8 192.586L2.34315 186.929C1.95262 186.538 1.31946 186.538 0.928932 186.929C0.538408 187.319 0.538408 187.953 0.928932 188.343L7.29289 194.707ZM21.1042 127.755L21.5582 128.646L21.1042 127.755ZM10.6158 138.243L9.72484 137.789L10.6158 138.243ZM213.384 112.035L212.493 111.581L213.384 112.035ZM202.896 122.523L202.442 121.632L202.896 122.523ZM9 194V190.192H7V194H9ZM9 182.577V174.962H7V182.577H9ZM9 167.347V163.539H7V167.347H9ZM9 163.539C9 162.424 9 161.356 9.00149 160.332L7.00149 160.329C7 161.355 7 162.424 7 163.539H9ZM9.05317 153.942C9.09933 151.542 9.18538 149.455 9.34467 147.607L7.35205 147.435C7.18737 149.346 7.10011 151.482 7.05354 153.903L9.05317 153.942ZM10.3951 141.504C10.6968 140.493 11.0629 139.569 11.5069 138.697L9.72484 137.789C9.22176 138.777 8.81219 139.815 8.47871 140.932L10.3951 141.504ZM11.5069 138.697C12.0565 137.619 12.6876 136.59 13.3926 135.62L11.7746 134.444C11.0083 135.499 10.3222 136.617 9.72484 137.789L11.5069 138.697ZM18.4809 130.532C19.4512 129.827 20.4796 129.196 21.5582 128.646L20.6502 126.864C19.4778 127.461 18.36 128.147 17.3053 128.914L18.4809 130.532ZM21.5582 128.646C22.4295 128.202 23.3542 127.836 24.3648 127.534L23.7926 125.618C22.6756 125.951 21.6376 126.361 20.6502 126.864L21.5582 128.646ZM30.4679 126.484C32.3163 126.324 34.4024 126.238 36.8024 126.192L36.764 124.193C34.3427 124.239 32.2072 124.326 30.2962 124.491L30.4679 126.484ZM43.1926 126.141C44.2171 126.139 45.285 126.139 46.4 126.139V124.139C45.2853 124.139 44.2159 124.139 43.1897 124.141L43.1926 126.141ZM46.4 126.139H50.5V124.139H46.4V126.139ZM58.7 126.139H66.9V124.139H58.7V126.139ZM75.1 126.139H83.3V124.139H75.1V126.139ZM91.5 126.139H99.7V124.139H91.5V126.139ZM107.9 126.139H116.1V124.139H107.9V126.139ZM124.3 126.139H132.5V124.139H124.3V126.139ZM140.7 126.139H148.9V124.139H140.7V126.139ZM157.1 126.139H165.3V124.139H157.1V126.139ZM173.5 126.139H177.6V124.139H173.5V126.139ZM177.6 126.139C178.715 126.139 179.784 126.139 180.81 126.138L180.807 124.138C179.783 124.139 178.715 124.139 177.6 124.139V126.139ZM187.236 126.086C189.657 126.039 191.793 125.952 193.704 125.787L193.532 123.794C191.684 123.954 189.598 124.04 187.198 124.086L187.236 126.086ZM200.207 124.66C201.324 124.327 202.362 123.917 203.35 123.414L202.442 121.632C201.57 122.076 200.646 122.442 199.635 122.744L200.207 124.66ZM203.35 123.414C204.522 122.817 205.64 122.131 206.695 121.365L205.519 119.747C204.549 120.451 203.52 121.083 202.442 121.632L203.35 123.414ZM212.225 115.834C212.992 114.779 213.678 113.661 214.275 112.489L212.493 111.581C211.944 112.66 211.312 113.688 210.607 114.658L212.225 115.834ZM214.275 112.489C214.778 111.502 215.188 110.463 215.521 109.347L213.605 108.774C213.303 109.785 212.937 110.71 212.493 111.581L214.275 112.489ZM216.648 102.843C216.813 100.932 216.9 98.7964 216.946 96.3752L214.947 96.3367C214.901 98.7367 214.815 100.823 214.655 102.671L216.648 102.843ZM216.999 89.9495C217 88.9233 217 87.8539 217 86.7391H215C215 87.8542 215 88.9221 214.999 89.9466L216.999 89.9495ZM217 86.7391V82.4522H215V86.7391H217ZM217 73.8783V65.3043H215V73.8783H217ZM217 56.7304V48.1565H215V56.7304H217ZM217 39.5826V31.0087H215V39.5826H217ZM217 22.4348V13.8609H215V22.4348H217ZM217 5.28695V1H215V5.28695H217Z" fill="#A7A7A7"/>
</svg>
