<svg width="48" height="48" viewBox="0 0 48 48" fill="none" xmlns="http://www.w3.org/2000/svg">
<g clip-path="url(#clip0_9382_6358)">
<path fill-rule="evenodd" clip-rule="evenodd" d="M23.9583 11C16.2397 11 10 17.1875 10 24.8423C10 30.9612 13.998 36.1407 19.5443 37.9738C20.2377 38.1117 20.4917 37.676 20.4917 37.3095C20.4917 36.9886 20.4689 35.8887 20.4689 34.7426C16.586 35.5677 15.7774 33.0925 15.7774 33.0925C15.1534 31.4882 14.2289 31.0759 14.2289 31.0759C12.958 30.2279 14.3214 30.2279 14.3214 30.2279C15.7311 30.3196 16.4709 31.6488 16.4709 31.6488C17.7186 33.7571 19.7291 33.1614 20.538 32.7946C20.6534 31.9008 21.0234 31.2821 21.4163 30.9384C18.3194 30.6175 15.0611 29.4258 15.0611 24.1088C15.0611 22.5962 15.6154 21.3587 16.4937 20.3963C16.3551 20.0526 15.8697 18.6314 16.6326 16.7293C16.6326 16.7293 17.8111 16.3626 20.4686 18.1502C21.6063 17.8472 22.7796 17.6931 23.9583 17.6918C25.1369 17.6918 26.3383 17.8524 27.4477 18.1502C30.1054 16.3626 31.284 16.7293 31.284 16.7293C32.0469 18.6314 31.5611 20.0526 31.4226 20.3963C32.324 21.3587 32.8554 22.5962 32.8554 24.1088C32.8554 29.4258 29.5971 30.5944 26.4771 30.9384C26.9857 31.3737 27.4246 32.1987 27.4246 33.5051C27.4246 35.3613 27.4017 36.8511 27.4017 37.3092C27.4017 37.676 27.656 38.1117 28.3491 37.9741C33.8954 36.1404 37.8934 30.9612 37.8934 24.8423C37.9163 17.1875 31.6537 11 23.9583 11Z" fill="white"/>
</g>
<defs>
<clipPath id="clip0_9382_6358">
<rect width="28" height="27" fill="white" transform="translate(10 11)"/>
</clipPath>
</defs>
</svg>
