<svg width="11" height="25" viewBox="0 0 11 25" fill="none" xmlns="http://www.w3.org/2000/svg">
<path d="M4.29244 7.1629C4.19974 7.25542 4.12619 7.36531 4.07601 7.48628C4.02583 7.60725 4 7.73693 4 7.8679C4 7.99887 4.02583 8.12855 4.07601 8.24953C4.12619 8.3705 4.19974 8.48039 4.29244 8.5729L8.17244 12.4529L4.29244 16.3329C4.10547 16.5199 4.00042 16.7735 4.00042 17.0379C4.00042 17.3023 4.10547 17.5559 4.29244 17.7429C4.47942 17.9299 4.73302 18.0349 4.99744 18.0349C5.26187 18.0349 5.51547 17.9299 5.70244 17.7429L10.2924 13.1529C10.3851 13.0604 10.4587 12.9505 10.5089 12.8295C10.5591 12.7086 10.5849 12.5789 10.5849 12.4479C10.5849 12.3169 10.5591 12.1873 10.5089 12.0663C10.4587 11.9453 10.3851 11.8354 10.2924 11.7429L5.70244 7.1529C5.32244 6.7729 4.68244 6.7729 4.29244 7.1629Z" fill="white"/>
</svg>
