<svg width="124" height="34" viewBox="0 0 124 34" fill="none" xmlns="http://www.w3.org/2000/svg">
<path d="M23.7884 6.33806C24.2512 5.87531 24.1516 5.09904 23.5591 4.82121C21.7568 3.97612 19.7448 3.50391 17.6226 3.50391C9.89057 3.50391 3.62256 9.77192 3.62256 17.5039C3.62256 19.6262 4.09477 21.6381 4.93986 23.4404C5.21769 24.033 5.99396 24.1325 6.45671 23.6698L9.60648 20.52C9.87582 20.2506 9.96343 19.8529 9.86945 19.4838C9.70824 18.8506 9.62256 18.1873 9.62256 17.5039C9.62256 13.0856 13.2043 9.50391 17.6226 9.50391C18.3059 9.50391 18.9693 9.58959 19.6025 9.75079C19.9716 9.84477 20.3693 9.75717 20.6386 9.48783L23.7884 6.33806Z" fill="white"/>
<path d="M13.4674 25.1443C13.7743 24.8375 14.2417 24.7696 14.6444 24.9312C15.5649 25.3006 16.57 25.5039 17.6226 25.5039C22.0408 25.5039 25.6226 21.9222 25.6226 17.5039C25.6226 16.4514 25.4193 15.4463 25.0499 14.5258C24.8882 14.1231 24.9561 13.6556 25.263 13.3488L28.267 10.3448C28.7071 9.90469 29.4402 9.96861 29.7516 10.5074C30.9416 12.5658 31.6226 14.9553 31.6226 17.5039C31.6226 25.2359 25.3545 31.5039 17.6226 31.5039C15.074 31.5039 12.6845 30.8229 10.6261 29.633C10.0873 29.3215 10.0233 28.5884 10.4634 28.1483L13.4674 25.1443Z" fill="white"/>
<path d="M50.2989 14.3559L50.3857 24.9395H46.8823L46.7955 14.3559H43.9177L43.8931 11.368H53.1522L53.1767 14.3559H50.2989Z" fill="white"/>
<path d="M54.3954 10H57.6307L57.6871 16.8758C58.1236 16.3358 58.5675 15.9758 59.0189 15.7958C59.4701 15.6038 59.9996 15.5078 60.6074 15.5078C61.7632 15.5078 62.6358 15.8318 63.225 16.4798C63.8261 17.1158 64.1311 17.9797 64.14 19.0717L64.1882 24.9395H60.9528L60.9146 20.2777C60.9108 19.8097 60.8719 19.4317 60.798 19.1437C60.7242 18.8557 60.6032 18.6337 60.4351 18.4777C60.147 18.2257 59.8004 18.0997 59.3953 18.0997C58.8471 18.0997 58.4255 18.2677 58.1303 18.6037C57.847 18.9277 57.7078 19.3957 57.7128 20.0077L57.7533 24.9395H54.518L54.3954 10Z" fill="white"/>
<path d="M73.042 18.9817C72.931 18.5257 72.7075 18.1597 72.3716 17.8837C72.0357 17.6077 71.6294 17.4697 71.1527 17.4697C70.6522 17.4697 70.2422 17.6017 69.9226 17.8657C69.615 18.1297 69.4214 18.5017 69.3419 18.9817H73.042ZM69.268 20.8716C69.2796 22.2756 69.9407 22.9776 71.2515 22.9776C71.9546 22.9776 72.4825 22.6896 72.8353 22.1136H75.9634C75.3491 24.2255 73.7788 25.2815 71.2526 25.2815C70.478 25.2815 69.768 25.1675 69.1227 24.9395C68.4772 24.6995 67.9203 24.3635 67.4521 23.9315C66.9957 23.4995 66.6399 22.9836 66.3848 22.3836C66.1296 21.7836 65.999 21.1116 65.9929 20.3677C65.9866 19.5997 66.1001 18.9097 66.3334 18.2977C66.5666 17.6737 66.9019 17.1458 67.3392 16.7138C67.7766 16.2818 68.3042 15.9518 68.9219 15.7238C69.5516 15.4838 70.2596 15.3638 71.0461 15.3638C71.8206 15.3638 72.5187 15.4838 73.1404 15.7238C73.7619 15.9518 74.289 16.2878 74.7216 16.7318C75.1542 17.1758 75.4864 17.7217 75.7181 18.3697C75.9498 19.0057 76.0689 19.7257 76.0755 20.5296L76.0783 20.8716H69.268Z" fill="white"/>
<path d="M87.7315 11.368L87.7921 18.7477C87.7953 19.1437 87.8106 19.5517 87.8379 19.9717C87.877 20.3797 87.9694 20.7516 88.1151 21.0876C88.2728 21.4236 88.5134 21.6996 88.8369 21.9156C89.1603 22.1196 89.614 22.2216 90.1979 22.2216C90.7818 22.2216 91.2278 22.1196 91.536 21.9156C91.856 21.6996 92.092 21.4236 92.2442 21.0876C92.3963 20.7516 92.4827 20.3797 92.5031 19.9717C92.5354 19.5517 92.55 19.1437 92.5467 18.7477L92.4862 11.368H95.9717L96.0363 19.2337C96.0536 21.3456 95.5836 22.8876 94.6264 23.8595C93.681 24.8315 92.2133 25.3175 90.2233 25.3175C88.2332 25.3175 86.7516 24.8315 85.7784 23.8595C84.8052 22.8876 84.31 21.3456 84.2926 19.2337L84.2281 11.368H87.7315Z" fill="white"/>
<path d="M98.7273 15.7058H101.963L101.972 16.8758C102.409 16.3358 102.853 15.9758 103.304 15.7958C103.755 15.6038 104.285 15.5078 104.892 15.5078C105.536 15.5078 106.085 15.6158 106.54 15.8318C107.006 16.0358 107.402 16.3298 107.727 16.7138C107.991 17.0258 108.173 17.3738 108.271 17.7577C108.37 18.1417 108.421 18.5797 108.425 19.0717L108.473 24.9395H105.238L105.2 20.2777C105.196 19.8217 105.157 19.4557 105.083 19.1797C105.022 18.8917 104.906 18.6637 104.738 18.4957C104.594 18.3517 104.432 18.2497 104.253 18.1897C104.074 18.1297 103.883 18.0997 103.68 18.0997C103.132 18.0997 102.711 18.2677 102.415 18.6037C102.132 18.9277 101.993 19.3957 101.998 20.0077L102.038 24.9395H98.8031L98.7273 15.7058Z" fill="white"/>
<path d="M113.833 15.7058L113.908 24.9395H110.673L110.597 15.7058H113.833ZM110.354 12.1599C110.352 11.9079 110.397 11.6739 110.491 11.458C110.584 11.23 110.714 11.032 110.879 10.864C111.045 10.696 111.234 10.564 111.448 10.468C111.674 10.372 111.912 10.324 112.162 10.324C112.412 10.324 112.645 10.372 112.86 10.468C113.087 10.564 113.285 10.696 113.453 10.864C113.621 11.032 113.754 11.23 113.851 11.458C113.948 11.6739 113.998 11.9079 114 12.1599C114.002 12.4119 113.956 12.6519 113.863 12.8799C113.769 13.0959 113.64 13.2879 113.474 13.4559C113.309 13.6239 113.113 13.7559 112.888 13.8519C112.674 13.9479 112.442 13.9959 112.192 13.9959C111.942 13.9959 111.703 13.9479 111.476 13.8519C111.26 13.7559 111.069 13.6239 110.9 13.4559C110.732 13.2879 110.6 13.0959 110.503 12.8799C110.405 12.6519 110.356 12.4119 110.354 12.1599Z" fill="white"/>
<path d="M119.676 18.4237L119.73 24.9395H116.495L116.441 18.4237H115.369L115.346 15.7058H116.419L116.396 12.9339H119.631L119.654 15.7058H121.495L121.517 18.4237H119.676Z" fill="white"/>
</svg>
