<svg width="34" height="34" viewBox="0 0 34 34" fill="none" xmlns="http://www.w3.org/2000/svg">
<path d="M23.7884 6.33806C24.2512 5.87531 24.1516 5.09904 23.5591 4.82121C21.7568 3.97612 19.7448 3.50391 17.6226 3.50391C9.89057 3.50391 3.62256 9.77192 3.62256 17.5039C3.62256 19.6262 4.09477 21.6381 4.93986 23.4404C5.21769 24.033 5.99396 24.1325 6.45671 23.6698L9.60648 20.52C9.87582 20.2506 9.96343 19.8529 9.86945 19.4838C9.70824 18.8506 9.62256 18.1873 9.62256 17.5039C9.62256 13.0856 13.2043 9.50391 17.6226 9.50391C18.3059 9.50391 18.9693 9.58959 19.6025 9.75079C19.9716 9.84477 20.3693 9.75717 20.6386 9.48783L23.7884 6.33806Z" fill="white"/>
<path d="M13.4674 25.1443C13.7743 24.8375 14.2417 24.7696 14.6444 24.9312C15.5649 25.3006 16.57 25.5039 17.6226 25.5039C22.0408 25.5039 25.6226 21.9222 25.6226 17.5039C25.6226 16.4514 25.4193 15.4463 25.0499 14.5258C24.8882 14.1231 24.9561 13.6556 25.263 13.3488L28.267 10.3448C28.7071 9.90469 29.4402 9.96861 29.7516 10.5074C30.9416 12.5658 31.6226 14.9553 31.6226 17.5039C31.6226 25.2359 25.3545 31.5039 17.6226 31.5039C15.074 31.5039 12.6845 30.8229 10.6261 29.633C10.0873 29.3215 10.0233 28.5884 10.4634 28.1483L13.4674 25.1443Z" fill="white"/>
</svg>
