<svg width="99" height="34" viewBox="0 0 99 34" fill="none" xmlns="http://www.w3.org/2000/svg">
<path d="M24.7884 6.33806C25.2512 5.87531 25.1516 5.09904 24.5591 4.82121C22.7568 3.97612 20.7448 3.50391 18.6226 3.50391C10.8906 3.50391 4.62256 9.77192 4.62256 17.5039C4.62256 19.6262 5.09477 21.6381 5.93986 23.4404C6.21769 24.033 6.99396 24.1325 7.45671 23.6698L10.6065 20.52C10.8758 20.2506 10.9634 19.8529 10.8694 19.4838C10.7082 18.8506 10.6226 18.1873 10.6226 17.5039C10.6226 13.0856 14.2043 9.50391 18.6226 9.50391C19.3059 9.50391 19.9693 9.58959 20.6025 9.75079C20.9716 9.84477 21.3693 9.75717 21.6386 9.48783L24.7884 6.33806Z" fill="white"/>
<path d="M14.4674 25.1443C14.7743 24.8375 15.2417 24.7696 15.6444 24.9312C16.5649 25.3006 17.57 25.5039 18.6226 25.5039C23.0408 25.5039 26.6226 21.9222 26.6226 17.5039C26.6226 16.4514 26.4193 15.4463 26.0499 14.5258C25.8882 14.1231 25.9561 13.6556 26.263 13.3488L29.267 10.3448C29.7071 9.90469 30.4402 9.96861 30.7516 10.5074C31.9416 12.5658 32.6226 14.9553 32.6226 17.5039C32.6226 25.2359 26.3545 31.5039 18.6226 31.5039C16.074 31.5039 13.6845 30.8229 11.6261 29.633C11.0873 29.3215 11.0233 28.5884 11.4634 28.1483L14.4674 25.1443Z" fill="white"/>
<path d="M46.0498 9.41211L46.0498 18.4321C46.0498 18.9161 46.0645 19.4148 46.0938 19.9281C46.1378 20.4268 46.2478 20.8814 46.4238 21.2921C46.6145 21.7028 46.9078 22.0401 47.3038 22.3041C47.6998 22.5534 48.2571 22.6781 48.9758 22.6781C49.6945 22.6781 50.2445 22.5534 50.6258 22.3041C51.0218 22.0401 51.3151 21.7028 51.5058 21.2921C51.6965 20.8814 51.8065 20.4268 51.8358 19.9281C51.8798 19.4148 51.9018 18.9161 51.9018 18.4321L51.9018 9.41211H56.1918L56.1918 19.0261C56.1918 21.6074 55.5978 23.4921 54.4098 24.6801C53.2365 25.8681 51.4251 26.4621 48.9758 26.4621C46.5265 26.4621 44.7078 25.8681 43.5198 24.6801C42.3318 23.4921 41.7378 21.6074 41.7378 19.0261L41.7378 9.41211H46.0498Z" fill="white"/>
<path d="M59.6772 26.0001L59.6772 9.41211H63.9892L71.9532 19.5541L71.9532 9.41211H76.2432L76.2432 26.0001H71.9532L63.9892 15.8581L63.9892 26.0001H59.6772Z" fill="white"/>
<path d="M84.0342 9.41211L84.0342 26.0001H79.7222L79.7222 9.41211H84.0342Z" fill="white"/>
<path d="M93.7915 13.0641L93.7915 26.0001H89.4795L89.4795 13.0641H85.9375L85.9375 9.41211H97.3335L97.3335 13.0641H93.7915Z" fill="white"/>
</svg>
