<svg width="24" height="24" viewBox="0 0 24 24" fill="none" xmlns="http://www.w3.org/2000/svg">
<path d="M4.8 14.7V3.9C4.8 3.66131 4.89482 3.43239 5.0636 3.2636C5.23239 3.09482 5.46131 3 5.7 3H20.1C20.3387 3 20.5676 3.09482 20.7364 3.2636C20.9052 3.43239 21 3.66131 21 3.9V18.3C21 19.0161 20.7155 19.7028 20.2092 20.2092C19.7028 20.7155 19.0161 21 18.3 21H5.7C4.98392 21 4.29716 20.7155 3.79081 20.2092C3.28446 19.7028 3 19.0161 3 18.3V16.5H17.4V18.3C17.4 18.5387 17.4948 18.7676 17.6636 18.9364C17.8324 19.1052 18.0613 19.2 18.3 19.2C18.5387 19.2 18.7676 19.1052 18.9364 18.9364C19.1052 18.7676 19.2 18.5387 19.2 18.3V14.7H4.8Z" fill="#E4E4E4"/>
</svg>
