<svg width="1600" height="698" viewBox="0 0 1600 698" fill="none" xmlns="http://www.w3.org/2000/svg">
<g opacity="0.6">
<path opacity="0.6" d="M0.583412 581.191L423.524 458.333V239.995L0.575985 117.451M0.917603 696.996L548.868 458.312V239.97L0.575985 1.74881M400.006 696.998L674.219 458.31V239.971L398.959 1M799.09 696.998L799.563 458.31V239.971L799.068 1M1198.17 697L924.903 458.316V239.974L1199.17 1.00568M1597.26 696.998L1050.25 458.314V239.971L1599 1.12642M1598.97 581.458L1175.59 458.334V239.996L1599 117.171M0.350813 523.212L298.165 458.332M298.165 458.332V239.995M298.165 458.332L1300.94 458.31M298.165 239.995L0.350813 175.267M298.165 239.995L1300.94 239.972M1598.77 523.257L1300.94 458.31M1300.94 458.31V239.972M1300.94 239.972L1598.77 175.241M0.350813 436.195L297.94 403.728H1300.75L1598.77 436.265M0.350813 349.236L1598.77 349.229M0.350813 262.276L297.94 294.571H1300.95L1598.77 262.192M1598.43 623.828H0M1598.43 687.992H0M1598.43 580.083H0M1598.43 524.292H0M1598.43 548.357H0M1598.77 118.551H0.350813M1598.77 150.191H0.350813M1598.77 74.9363H0.350813M1598.77 174.196H0.350813M1598.77 10.9508H0.350813M82.0412 505.414H1516.96V193.025H82.0412V505.414ZM151.642 490.261H1447.45V208.151H151.642V490.261ZM209.076 477.704H1389.86V220.633H209.076V477.704ZM257.279 467.243H1341.9V231.108H257.279V467.243ZM298.165 458.329L1300.94 458.307V239.993H298.165V458.329Z" stroke="url(#paint0_radial_8271_15386)" stroke-opacity="0.3" stroke-width="0.4" stroke-linecap="round" stroke-linejoin="round"/>
</g>
<defs>
<radialGradient id="paint0_radial_8271_15386" cx="0" cy="0" r="1" gradientUnits="userSpaceOnUse" gradientTransform="translate(799.5 349) rotate(90) scale(477.565 1097.17)">
<stop stop-color="#BCBCBC" stop-opacity="0.82"/>
<stop offset="1" stop-color="white" stop-opacity="0"/>
</radialGradient>
</defs>
</svg>
