<svg width="1599" height="696" viewBox="0 0 1599 696" fill="none" xmlns="http://www.w3.org/2000/svg">
<path d="M0.583412 580.191L423.524 457.333V238.995L0.575985 116.451M0.917603 695.996L548.868 457.312V238.97L0.575985 0.748805M400.006 695.998L674.219 457.31V238.971L398.959 0M799.09 695.998L799.563 457.31V238.971L799.068 0M1198.17 696L924.903 457.316V238.974L1199.17 0.00567756M1597.26 695.998L1050.25 457.314V238.971L1599 0.126418M1598.97 580.458L1175.59 457.334V238.996L1599 116.171M0.350813 522.212L298.165 457.332M298.165 457.332V238.995M298.165 457.332L1300.95 457.31M298.165 238.995L0.350813 174.267M298.165 238.995L1300.95 238.972M1598.77 522.257L1300.95 457.31M1300.95 457.31V238.972M1300.95 238.972L1598.77 174.241M0.350813 435.195L297.94 402.728H1300.75L1598.77 435.265M0.350813 348.236L1598.77 348.229M0.350813 261.276L297.94 293.571H1300.95L1598.77 261.192M1598.43 622.828H0M1598.43 686.992H0M1598.43 579.083H0M1598.43 523.292H0M1598.43 547.357H0M1598.77 117.551H0.350813M1598.77 149.191H0.350813M1598.77 73.9363H0.350813M1598.77 173.196H0.350813M1598.77 9.95084H0.350813M82.0412 504.414H1516.96V192.025H82.0412V504.414ZM151.642 489.261H1447.45V207.151H151.642V489.261ZM209.076 476.704H1389.86V219.633H209.076V476.704ZM257.279 466.243H1341.9V230.108H257.279V466.243ZM298.165 457.329L1300.95 457.307V238.993H298.165V457.329Z" stroke="url(#paint0_radial_7707_9439)" stroke-opacity="0.3" stroke-width="0.4" stroke-linecap="round" stroke-linejoin="round"/>
<defs>
<radialGradient id="paint0_radial_7707_9439" cx="0" cy="0" r="1" gradientUnits="userSpaceOnUse" gradientTransform="translate(799.5 348) rotate(90) scale(477.565 1097.17)">
<stop stop-color="#BCBCBC" stop-opacity="0.82"/>
<stop offset="1" stop-color="white" stop-opacity="0"/>
</radialGradient>
</defs>
</svg>
