<svg width="12" height="11" viewBox="0 0 12 11" fill="none" xmlns="http://www.w3.org/2000/svg">
<path d="M1.14265 6.36745L9.61408 6.36745L7.02122 9.58009C6.89998 9.73056 6.84165 9.92456 6.85906 10.1194C6.87648 10.3142 6.96821 10.494 7.11408 10.619C7.25995 10.7441 7.448 10.8043 7.63688 10.7863C7.82576 10.7683 7.99998 10.6737 8.12122 10.5232L11.6926 6.10219C11.7167 6.06703 11.7382 6.03008 11.7569 5.99166C11.7569 5.95482 11.7569 5.93272 11.8069 5.89587C11.8393 5.81139 11.8563 5.72146 11.8569 5.63061C11.8563 5.53977 11.8393 5.44983 11.8069 5.36535C11.8069 5.32851 11.8069 5.3064 11.7569 5.26956C11.7382 5.23114 11.7167 5.1942 11.6926 5.15903L8.12122 0.73798C8.05406 0.654803 7.96996 0.587913 7.8749 0.542066C7.77984 0.496219 7.67616 0.472541 7.57122 0.472716C7.40433 0.472381 7.24258 0.532341 7.11408 0.64219C7.04175 0.704047 6.98196 0.780017 6.93814 0.865746C6.89432 0.951476 6.86732 1.04528 6.85869 1.14179C6.85007 1.2383 6.85998 1.33562 6.88787 1.42817C6.91576 1.52072 6.96107 1.60668 7.02122 1.68114L9.61408 4.89377L1.14265 4.89377C0.953207 4.89377 0.771525 4.9714 0.63757 5.10959C0.503616 5.24777 0.428362 5.43519 0.428362 5.63061C0.428362 5.82603 0.503616 6.01345 0.63757 6.15164C0.771525 6.28982 0.953207 6.36745 1.14265 6.36745Z" fill="#5F7179"/>
</svg>
