<svg width="20" height="20" viewBox="0 0 20 20" fill="none" xmlns="http://www.w3.org/2000/svg">
<path d="M13.3333 7.99935L5.9375 15.416C5.77083 15.5827 5.57278 15.666 5.34333 15.666C5.11389 15.666 4.91611 15.5827 4.75 15.416C4.58333 15.2494 4.5 15.0513 4.5 14.8219C4.5 14.5924 4.58333 14.3946 4.75 14.2285L12.1667 6.83269H5.83333C5.59722 6.83269 5.39917 6.75269 5.23917 6.59269C5.07917 6.43269 4.99944 6.23491 5 5.99935C5 5.76324 5.08 5.56519 5.24 5.40519C5.4 5.24519 5.59778 5.16546 5.83333 5.16602H14.1667C14.4028 5.16602 14.6008 5.24602 14.7608 5.40602C14.9208 5.56602 15.0006 5.7638 15 5.99935V14.3327C15 14.5688 14.92 14.7669 14.76 14.9269C14.6 15.0869 14.4022 15.1666 14.1667 15.166C13.9306 15.166 13.7325 15.086 13.5725 14.926C13.4125 14.766 13.3328 14.5682 13.3333 14.3327V7.99935Z" fill="#8259DD"/>
</svg>
