<svg width="48" height="48" viewBox="0 0 48 48" fill="none" xmlns="http://www.w3.org/2000/svg">
<path d="M34.9615 16.6035C36.0897 16.4806 37.1911 16.1784 38.2241 15.7083C37.4799 16.8818 36.5161 17.9005 35.3857 18.7085C35.7173 24.8875 32.5453 30.7277 27.1818 33.8135C21.8183 36.8994 15.1752 36.7063 10 33.314C10.5609 33.4039 11.1289 33.4471 11.6969 33.4471C14.3035 33.4471 16.6943 32.5177 18.553 30.9718C16.1024 30.8985 13.963 29.2911 13.2105 26.9577C14.0653 27.0922 14.9385 27.0525 15.7775 26.8409C13.0863 26.2843 11.156 23.914 11.1559 21.1659V21.085C11.9342 21.5092 12.8097 21.777 13.7408 21.8436C11.2215 20.1139 10.4816 16.7234 12.0511 14.1013C14.9787 17.7101 19.3012 19.9056 23.9422 20.1412C23.3314 17.5869 24.5153 14.9412 26.8269 13.6945C29.1385 12.4478 31.9996 12.9121 33.7984 14.8257C35.0992 14.5978 36.3463 14.1302 37.4763 13.447C37.0009 14.7431 36.1187 15.8505 34.9615 16.6035V16.6035Z" fill="white"/>
</svg>
