<svg width="80" height="80" viewBox="0 0 80 80" fill="none" xmlns="http://www.w3.org/2000/svg">
<path d="M63.923 24.2071C66.1795 23.9613 68.3823 23.3569 70.4483 22.4167C68.9598 24.7636 67.0323 26.801 64.7714 28.4171C65.4345 40.775 59.0906 52.4554 48.3637 58.6271C37.6367 64.7987 24.3503 64.4125 14 57.6281C15.1217 57.8079 16.2578 57.8941 17.3939 57.8941C22.6069 57.8941 27.3885 56.0354 31.106 52.9435C26.2048 52.797 21.9261 49.5822 20.421 44.9155C22.1306 45.1845 23.8769 45.105 25.555 44.6818C20.1725 43.5685 16.312 38.8281 16.3117 33.3317V33.1699C17.8684 34.0184 19.6193 34.5541 21.4816 34.6871C16.4431 31.2277 14.9631 24.4467 18.1021 19.2026C23.9574 26.4201 32.6024 30.8112 41.8844 31.2825C40.6628 26.1737 43.0306 20.8823 47.6538 18.389C52.2771 15.8957 57.9992 16.8242 61.5969 20.6514C64.1984 20.1955 66.6926 19.2605 68.9527 17.8939C68.0019 20.4863 66.2373 22.7011 63.923 24.2071Z" fill="white"/>
</svg>
