<svg width="1440" height="304" viewBox="0 0 1440 304" fill="none" xmlns="http://www.w3.org/2000/svg">
<path fill-rule="evenodd" clip-rule="evenodd" d="M1439.72 0C1439.87 0 1440 0.0662705 1440 0.148019C1440 0.229768 1439.87 0.296038 1439.72 0.296038H1387.74L1419.74 4.07978H1439.72C1439.87 4.07978 1440 4.14605 1440 4.2278C1440 4.30955 1439.87 4.37582 1439.72 4.37582H1422.25L1439.78 6.44888C1439.93 6.46664 1440.03 6.54572 1439.99 6.62552C1439.96 6.70532 1439.81 6.75561 1439.66 6.73785L1419.68 4.37582H1344.22L1376.01 8.60477H1439.72C1439.87 8.60477 1440 8.67104 1440 8.75279C1440 8.83454 1439.87 8.90081 1439.72 8.90081H1378.24L1413.97 13.6525H1439.72C1439.87 13.6525 1440 13.7187 1440 13.8005C1440 13.8822 1439.87 13.9485 1439.72 13.9485H1416.19L1439.79 17.087C1439.94 17.1069 1440.03 17.1873 1439.99 17.2666C1439.95 17.3459 1439.8 17.3941 1439.65 17.3742L1413.9 13.9485H1329.14L1364.47 19.3195H1439.72C1439.87 19.3195 1440 19.3857 1440 19.4675C1440 19.5492 1439.87 19.6155 1439.72 19.6155H1366.42L1406.63 25.7288H1439.72C1439.87 25.7288 1440 25.7951 1440 25.8768C1440 25.9586 1439.87 26.0249 1439.72 26.0249H1408.58L1439.8 30.7712C1439.95 30.7937 1440.03 30.8757 1439.99 30.9542C1439.95 31.0328 1439.79 31.0783 1439.64 31.0558L1406.55 26.0249H1310.2L1349.74 33.0389H1439.72C1439.87 33.0389 1440 33.1052 1440 33.187C1440 33.2687 1439.87 33.335 1439.72 33.335H1351.41L1397.15 41.4472H1439.72C1439.87 41.4472 1440 41.5135 1440 41.5952C1440 41.677 1439.87 41.7432 1439.72 41.7432H1398.82L1439.81 49.0138C1439.96 49.0397 1440.03 49.1236 1439.99 49.2011C1439.94 49.2786 1439.78 49.3205 1439.63 49.2946L1397.06 41.7432H1285.68L1330.22 51.2239H1439.72C1439.87 51.2239 1440 51.2902 1440 51.3719C1440 51.4537 1439.87 51.5199 1439.72 51.5199H1331.61L1384.29 62.7325H1439.72C1439.87 62.7325 1440 62.7987 1440 62.8805C1440 62.9622 1439.87 63.0285 1439.72 63.0285H1385.68L1439.82 74.5519C1439.97 74.5823 1440.04 74.6685 1439.98 74.7444C1439.92 74.8203 1439.76 74.8571 1439.62 74.8267L1384.19 63.0285H1252.52L1303.08 76.4814H1439.72C1439.87 76.4814 1440 76.5477 1440 76.6294C1440 76.7112 1439.87 76.7775 1439.72 76.7775H1304.19L1365.88 93.1937H1439.72C1439.87 93.1937 1440 93.26 1440 93.3417C1440 93.4235 1439.87 93.4898 1439.72 93.4898H1367L1439.85 112.874C1439.98 112.91 1440.04 112.999 1439.97 113.072C1439.9 113.146 1439.73 113.175 1439.6 113.139L1365.75 93.4898H1205.21L1262.85 113.941H1439.72C1439.87 113.941 1440 114.008 1440 114.089C1440 114.171 1439.87 114.237 1439.72 114.237H1263.68L1337.38 140.386H1439.72C1439.87 140.386 1440 140.452 1440 140.534C1440 140.616 1439.87 140.682 1439.72 140.682H1338.21L1435.62 175.246H1439.72C1439.87 175.246 1440 175.312 1440 175.394C1440 175.476 1439.87 175.542 1439.72 175.542H1436.46L1439.88 176.755C1440 176.801 1440.04 176.892 1439.95 176.96C1439.87 177.028 1439.69 177.047 1439.57 177.001L1435.45 175.542H1197.56L1287.28 223.306H1439.72C1439.87 223.306 1440 223.372 1440 223.454C1440 223.536 1439.87 223.602 1439.72 223.602H1287.83L1438.37 303.747C1438.38 303.751 1438.39 303.755 1438.39 303.759C1438.43 303.785 1438.46 303.817 1438.46 303.852C1438.46 303.934 1438.33 304 1438.18 304H0.586978C0.520701 304 0.459828 303.988 0.411999 303.967C0.403996 303.964 0.396264 303.96 0.388846 303.956C0.280012 303.898 0.279973 303.805 0.38876 303.747L151.185 223.602H0.280257C0.126376 223.602 0.00163052 223.536 0.00163052 223.454C0.00163052 223.372 0.126376 223.306 0.280257 223.306H151.742L241.612 175.542H3.72248L0.43377 176.708C0.305762 176.753 0.132759 176.735 0.0473585 176.667C-0.0380421 176.599 -0.00350148 176.507 0.124507 176.461L2.71834 175.542H0.280257C0.126376 175.542 0.00163052 175.476 0.00163052 175.394C0.00163052 175.312 0.126376 175.246 0.280257 175.246H3.55362L101.077 140.682H0.280257C0.126376 140.682 0.00163052 140.616 0.00163052 140.534C0.00163052 140.452 0.126376 140.386 0.280257 140.386H101.913L175.691 114.237H0.280257C0.126376 114.237 0.00163052 114.171 0.00163052 114.089C0.00163052 114.008 0.126376 113.941 0.280257 113.941H176.526L234.231 93.4898H73.6898L0.404945 112.973C0.267334 113.009 0.0999506 112.98 0.0310849 112.907C-0.0377807 112.834 0.0179492 112.745 0.155561 112.708L72.4446 93.4898H0.280257C0.126376 93.4898 0.00163052 93.4235 0.00163052 93.3417C0.00163052 93.26 0.126376 93.1937 0.280257 93.1937H73.5581L135.307 76.7775H0.280257C0.126376 76.7775 0.00163052 76.7112 0.00163052 76.6294C0.00163052 76.5477 0.126376 76.4814 0.280257 76.4814H136.421L187.024 63.0285H55.3673L0.383819 74.7237C0.240963 74.7541 0.0787869 74.7172 0.0215891 74.6413C-0.0356086 74.5654 0.0338312 74.4793 0.176687 74.4489L53.8681 63.0285H0.280257C0.126376 63.0285 0.00163052 62.9622 0.00163052 62.8805C0.00163052 62.7987 0.126376 62.7325 0.280257 62.7325H55.2599L107.974 51.5199H0.280257C0.126376 51.5199 0.00163052 51.4537 0.00163052 51.3719C0.00163052 51.2902 0.126376 51.2239 0.280257 51.2239H109.366L153.938 41.7432H42.5468L0.367105 49.22C0.221135 49.2459 0.0633196 49.204 0.0146138 49.1265C-0.034092 49.0489 0.0447563 48.9651 0.190726 48.9392L40.7863 41.7432H0.280257C0.126376 41.7432 0.00163052 41.677 0.00163052 41.5952C0.00163052 41.5135 0.126376 41.4472 0.280257 41.4472H42.4563L88.2207 33.335H0.280257C0.126376 33.335 0.00163052 33.2687 0.00163052 33.187C0.00163052 33.1052 0.126376 33.0389 0.280257 33.0389H89.8908L129.46 26.0249H33.1005L0.355534 31.0002C0.207585 31.0227 0.0533453 30.9772 0.0110303 30.8986C-0.0312846 30.82 0.0543487 30.738 0.202298 30.7155L31.074 26.0249H0.280257C0.126376 26.0249 0.00163052 25.9586 0.00163052 25.8768C0.00163052 25.7951 0.126376 25.7288 0.280257 25.7288H33.0223L73.2569 19.6155H0.280257C0.126376 19.6155 0.00163052 19.5492 0.00163052 19.4675C0.00163052 19.3857 0.126376 19.3195 0.280257 19.3195H75.2053L110.554 13.9485H25.8109L0.346335 17.334C0.197057 17.3538 0.0457591 17.3056 0.00840138 17.2263C-0.0289564 17.147 0.0617728 17.0666 0.211051 17.0468L23.5155 13.9485H0.280257C0.126376 13.9485 0.00163052 13.8822 0.00163052 13.8005C0.00163052 13.7187 0.126376 13.6525 0.280257 13.6525H25.7422L61.483 8.90081H0.280257C0.126376 8.90081 0.00163052 8.83454 0.00163052 8.75279C0.00163052 8.67104 0.126376 8.60477 0.280257 8.60477H63.7097L95.5189 4.37582H20.0529L0.339204 6.70588C0.188996 6.72364 0.0401356 6.67334 0.00671614 6.59354C-0.0267033 6.51374 0.067973 6.43466 0.218182 6.41691L17.487 4.37582H0.280257C0.126376 4.37582 0.00163052 4.30955 0.00163052 4.2278C0.00163052 4.14605 0.126376 4.07978 0.280257 4.07978H19.9917L52.0043 0.296038H0.280257C0.126376 0.296038 0.00163052 0.229768 0.00163052 0.148019C0.00163052 0.0662705 0.126376 0 0.280257 0H1439.72ZM102.081 140.682L4.55775 175.246H242.169L307.203 140.682H102.081ZM307.76 140.386H102.917L176.695 114.237H356.96L307.76 140.386ZM307.991 140.682L242.957 175.246H480.763L513.309 140.682H307.991ZM513.588 140.386H308.548L357.748 114.237H538.209L513.588 140.386ZM513.932 140.682L481.387 175.246H719.31L719.366 140.682H513.932ZM719.366 140.386H514.211L538.832 114.237H719.409L719.366 140.386ZM719.923 140.682L719.867 175.246H957.793L925.36 140.682H719.923ZM925.082 140.386H719.924L719.966 114.237H900.545L925.082 140.386ZM925.982 140.682L958.416 175.246H1196.22L1131.3 140.682H925.982ZM1130.74 140.386H925.704L901.168 114.237H1081.63L1130.74 140.386ZM1132.08 140.682L1197.01 175.246H1434.62L1337.21 140.682H1132.08ZM1336.37 140.386H1131.53L1082.41 114.237H1262.68L1336.37 140.386ZM1204.21 93.4898L1261.85 113.941H1081.86L1043.44 93.4898H1204.21ZM1042.65 93.4898L1081.07 113.941H900.89L881.7 93.4898H1042.65ZM881.077 93.4898L900.268 113.941H719.967L720 93.4898H881.077ZM719.443 93.4898L719.409 113.941H539.111L558.368 93.4898H719.443ZM557.745 93.4898L538.488 113.941H358.305L396.785 93.4898H557.745ZM395.997 93.4898L357.517 113.941H177.531L235.235 93.4898H395.997ZM74.8033 93.1937H235.066L281.385 76.7775H136.553L74.8033 93.1937ZM396.555 93.1937H236.07L282.389 76.7775H427.442L396.555 93.1937ZM558.023 93.1937H397.342L428.23 76.7775H573.481L558.023 93.1937ZM719.443 93.1937H558.646L574.104 76.7775H719.47L719.443 93.1937ZM880.799 93.1937H720.001L720.027 76.7775H865.395L880.799 93.1937ZM1042.1 93.1937H881.422L866.018 76.7775H1011.26L1042.1 93.1937ZM1203.38 93.1937H1042.89L1012.05 76.7775H1157.11L1203.38 93.1937ZM1204.38 93.1937H1364.64L1302.94 76.7775H1158.11L1204.38 93.1937ZM958.071 175.542H719.866L719.789 223.306H1002.89L958.071 175.542ZM719.309 175.542H481.108L436.134 223.306H719.231L719.309 175.542ZM480.485 175.542H242.4L152.53 223.306H435.511L480.485 175.542ZM1196.78 175.542H958.693L1003.51 223.306H1286.49L1196.78 175.542ZM137.666 76.4814H282.22L320.178 63.0285H188.269L137.666 76.4814ZM283.224 76.4814H427.999L453.312 63.0285H321.182L283.224 76.4814ZM573.759 76.4814H428.787L454.1 63.0285H586.427L573.759 76.4814ZM719.47 76.4814H574.383L587.05 63.0285H719.492L719.47 76.4814ZM865.117 76.4814H720.028L720.05 63.0285H852.494L865.117 76.4814ZM1010.71 76.4814H865.74L853.116 63.0285H985.439L1010.71 76.4814ZM1011.49 76.4814H1156.28L1118.36 63.0285H986.226L1011.49 76.4814ZM1157.28 76.4814H1301.83L1251.27 63.0285H1119.36L1157.28 76.4814ZM1330.11 51.5199L1382.79 62.7325H1251.4L1209.27 51.5199H1330.11ZM1208.02 51.5199L1250.16 62.7325H1118.53L1086.93 51.5199H1208.02ZM1085.93 51.5199L1117.53 62.7325H985.67L964.609 51.5199H1085.93ZM963.822 51.5199L984.883 62.7325H852.839L842.317 51.5199H963.822ZM841.695 51.5199L852.216 62.7325H720.05L720.068 51.5199H841.695ZM719.511 51.5199L719.493 62.7325H587.328L597.886 51.5199H719.511ZM597.263 51.5199L586.705 62.7325H454.657L475.754 51.5199H597.263ZM474.966 51.5199L453.869 62.7325H322.017L353.654 51.5199H474.966ZM352.65 51.5199L321.013 62.7325H189.383L231.558 51.5199H352.65ZM230.313 51.5199L188.137 62.7325H56.7591L109.473 51.5199H230.313ZM54.5702 0.296038L22.5576 4.07978H97.7457L126.206 0.296038H54.5702ZM128.501 0.296038L100.041 4.07978H175.505L200.407 0.296038H128.501ZM202.434 0.296038L177.531 4.07978H253.261L274.607 0.296038H202.434ZM276.368 0.296038L255.022 4.07978H331.008L348.797 0.296038H276.368ZM350.296 0.296038L332.507 4.07978H408.758L422.991 0.296038H350.296ZM424.236 0.296038L410.003 4.07978H486.503L497.179 0.296038H424.236ZM498.183 0.296038L487.507 4.07978H564.227L571.346 0.296038H498.183ZM572.134 0.296038L565.015 4.07978H641.932L645.495 0.296038H572.134ZM646.118 0.296038L642.555 4.07978H719.588L719.595 0.296038H646.118ZM720.152 0.296038L720.146 4.07978H797.179L793.629 0.296038H720.152ZM794.251 0.296038L797.802 4.07978H874.714L867.607 0.296038H794.251ZM868.394 0.296038L875.501 4.07978H952.229L941.565 0.296038H868.394ZM942.569 0.296038L953.232 4.07978H1029.73L1015.51 0.296038H942.569ZM1016.76 0.296038L1030.98 4.07978H1107.22L1089.44 0.296038H1016.76ZM1090.94 0.296038L1108.72 4.07978H1184.71L1163.38 0.296038H1090.94ZM1165.14 0.296038L1186.47 4.07978H1262.2L1237.31 0.296038H1165.14ZM1239.34 0.296038L1264.23 4.07978H1339.7L1311.25 0.296038H1239.34ZM1313.54 0.296038L1341.99 4.07978H1417.18L1385.17 0.296038H1313.54ZM44.2169 41.4472L89.9813 33.335H193.469L155.33 41.4472H44.2169ZM91.6514 33.0389H194.86L227.836 26.0249H131.221L91.6514 33.0389ZM156.829 41.4472L194.968 33.335H298.715L268.201 41.4472H156.829ZM196.36 33.0389H299.829L326.212 26.0249H229.335L196.36 33.0389ZM269.447 41.4472L299.961 33.335H403.959L381.07 41.4472H269.447ZM301.074 33.0389H404.794L424.584 26.0249H327.457L301.074 33.0389ZM382.074 41.4472L404.963 33.335H509.182L493.918 41.4472H382.074ZM405.798 33.0389H509.739L522.936 26.0249H425.589L405.798 33.0389ZM494.706 41.4472L509.97 33.335H614.386L606.747 41.4472H494.706ZM510.527 33.0389H614.665L621.269 26.0249H523.724L510.527 33.0389ZM607.371 41.4472L615.009 33.335H719.541L719.528 41.4472H607.371ZM615.288 33.0389H719.541L719.553 26.0249H621.892L615.288 33.0389ZM720.085 41.4472L720.098 33.335H824.631L832.243 41.4472H720.085ZM720.099 33.0389H824.353L817.771 26.0249H720.11L720.099 33.0389ZM832.866 41.4472L825.254 33.335H929.664L944.902 41.4472H832.866ZM824.976 33.0389H929.108L915.934 26.0249H818.394L824.976 33.0389ZM945.689 41.4472L930.452 33.335H1034.68L1057.54 41.4472H945.689ZM929.896 33.0389H1033.84L1014.08 26.0249H916.721L929.896 33.0389ZM1058.54 41.4472L1035.68 33.335H1139.68L1170.17 41.4472H1058.54ZM1034.85 33.0389H1138.57L1112.21 26.0249H1015.08L1034.85 33.0389ZM1171.41 41.4472L1140.92 33.335H1244.67L1282.79 41.4472H1171.41ZM1139.81 33.0389H1243.28L1210.33 26.0249H1113.45L1139.81 33.0389ZM1284.29 41.4472L1246.17 33.335H1349.65L1395.39 41.4472H1284.29ZM1244.78 33.0389H1347.98L1308.44 26.0249H1211.83L1244.78 33.0389ZM1328.72 51.2239L1284.18 41.7432H1172.52L1208.15 51.2239H1328.72ZM1206.91 51.2239L1171.28 41.7432H1059.38L1086.1 51.2239H1206.91ZM1085.09 51.2239L1058.37 41.7432H946.245L964.053 51.2239H1085.09ZM963.266 51.2239L945.458 41.7432H833.143L842.04 51.2239H963.266ZM841.417 51.2239L832.521 41.7432H720.084L720.069 51.2239H841.417ZM719.512 51.2239L719.527 41.7432H607.092L598.165 51.2239H719.512ZM597.542 51.2239L606.469 41.7432H494.149L476.311 51.2239H597.542ZM475.523 51.2239L493.361 41.7432H381.239L354.489 51.2239H475.523ZM353.485 51.2239L380.235 41.7432H268.333L232.672 51.2239H353.485ZM231.427 51.2239L267.088 41.7432H155.437L110.865 51.2239H231.427ZM1.25735 303.704L151.973 223.602H435.232L359.809 303.704H1.25735ZM360.432 303.704L435.855 223.602H719.231L719.1 303.704H360.432ZM719.658 303.704L719.788 223.602H1003.17L1078.33 303.704H719.658ZM1078.95 303.704L1003.79 223.602H1287.05L1437.51 303.704H1078.95ZM1373.72 8.60477L1341.92 4.37582H1266.18L1293.99 8.60477H1373.72ZM1291.97 8.60477L1264.15 4.37582H1188.14L1211.98 8.60477H1291.97ZM1213.65 8.90081H1293.91L1325.17 13.6525H1240.44L1213.65 8.90081ZM1210.22 8.60477L1186.38 4.37582H1110.11L1129.98 8.60477H1210.22ZM1131.37 8.90081H1211.89L1238.68 13.6525H1153.7L1131.37 8.90081ZM1128.48 8.60477L1108.61 4.37582H1032.09L1047.98 8.60477H1128.48ZM1049.09 8.90081H1129.87L1152.2 13.6525H1066.95L1049.09 8.90081ZM1046.74 8.60477L1030.84 4.37582H954.066L965.985 8.60477H1046.74ZM966.819 8.90081H1047.85L1065.71 13.6525H980.21L966.819 8.90081ZM964.982 8.60477L953.063 4.37582H876.057L884 8.60477H964.982ZM884.556 8.90081H965.816L979.207 13.6525H893.481L884.556 8.90081ZM883.213 8.60477L875.27 4.37582H798.08L802.048 8.60477H883.213ZM802.326 8.90081H883.769L892.694 13.6525H806.784L802.326 8.90081ZM801.425 8.60477L797.457 4.37582H720.145L720.138 8.60477H801.425ZM720.138 8.90081H801.703L806.162 13.6525H720.13L720.138 8.90081ZM719.581 8.60477L719.588 4.37582H642.277L638.295 8.60477H719.581ZM638.016 8.90081H719.581L719.573 13.6525H633.542L638.016 8.90081ZM637.672 8.60477L641.654 4.37582H564.458L556.501 8.60477H637.672ZM555.944 8.90081H637.393L632.919 13.6525H547.003L555.944 8.90081ZM555.713 8.60477L563.67 4.37582H486.672L474.74 8.60477H555.713ZM473.904 8.90081H555.156L546.215 13.6525H460.497L473.904 8.90081ZM473.736 8.60477L485.668 4.37582H408.89L392.983 8.60477H473.736ZM391.869 8.90081H472.9L459.493 13.6525H373.996L391.869 8.90081ZM391.737 8.60477L407.645 4.37582H331.116L311.234 8.60477H391.737ZM309.842 8.90081H390.624L372.751 13.6525H287.503L309.842 8.90081ZM309.734 8.60477L329.616 4.37582H253.352L229.495 8.60477H309.734ZM227.825 8.90081H308.343L286.003 13.6525H201.019L227.825 8.90081ZM227.734 8.60477L251.591 4.37582H175.583L147.75 8.60477H227.734ZM145.802 8.90081H226.064L199.258 13.6525H114.529L145.802 8.90081ZM145.724 8.60477L173.557 4.37582H97.8143L66.0051 8.60477H145.724ZM63.7784 8.90081H143.775L112.503 13.6525H28.0376L63.7784 8.90081ZM1295.94 8.90081H1375.94L1411.67 13.6525H1327.19L1295.94 8.90081ZM1404.6 25.7288L1364.39 19.6155H1274.06L1308.53 25.7288H1404.6ZM1306.77 25.7288L1272.3 19.6155H1181.71L1210.44 25.7288H1306.77ZM1208.94 25.7288L1180.21 19.6155H1089.36L1112.34 25.7288H1208.94ZM1111.09 25.7288L1088.12 19.6155H997.016L1014.24 25.7288H1111.09ZM1013.24 25.7288L996.013 19.6155H904.682L916.165 25.7288H1013.24ZM915.378 25.7288L903.895 19.6155H812.38L818.116 25.7288H915.378ZM817.494 25.7288L811.757 19.6155H720.12L720.11 25.7288H817.494ZM719.553 25.7288L719.563 19.6155H627.927L622.171 25.7288H719.553ZM621.548 25.7288L627.304 19.6155H535.783L524.281 25.7288H621.548ZM523.493 25.7288L534.995 19.6155H443.673L426.424 25.7288H523.493ZM425.42 25.7288L442.669 19.6155H351.566L328.571 25.7288H425.42ZM327.326 25.7288L350.321 19.6155H259.468L230.727 25.7288H327.326ZM229.228 25.7288L257.969 19.6155H167.378L132.891 25.7288H229.228ZM131.13 25.7288L165.618 19.6155H75.2834L35.0488 25.7288H131.13ZM167.288 19.3195H77.2318L112.581 13.9485H197.588L167.288 19.3195ZM169.049 19.3195H259.361L284.612 13.9485H199.348L169.049 19.3195ZM260.86 19.3195H351.434L371.637 13.9485H286.111L260.86 19.3195ZM352.68 19.3195H443.504L458.658 13.9485H372.882L352.68 19.3195ZM444.508 19.3195H535.552L545.658 13.9485H459.662L444.508 19.3195ZM536.34 19.3195H627.583L632.64 13.9485H546.446L536.34 19.3195ZM628.206 19.3195H719.564L719.572 13.9485H633.263L628.206 19.3195ZM720.121 19.3195H811.479L806.44 13.9485H720.13L720.121 19.3195ZM812.102 19.3195H903.339L893.25 13.9485H807.062L812.102 19.3195ZM904.126 19.3195H995.178L980.042 13.9485H894.038L904.126 19.3195ZM996.182 19.3195H1087.01L1066.82 13.9485H981.045L996.182 19.3195ZM1088.25 19.3195H1178.82L1153.59 13.9485H1068.06L1088.25 19.3195ZM1180.32 19.3195H1270.63L1240.35 13.9485H1155.09L1180.32 19.3195ZM1362.45 19.3195H1272.39L1242.11 13.9485H1327.12L1362.45 19.3195Z" fill="url(#paint0_radial_308_199)" fill-opacity="0.3"/>
<defs>
<radialGradient id="paint0_radial_308_199" cx="0" cy="0" r="1" gradientUnits="userSpaceOnUse" gradientTransform="translate(720 8.35188) rotate(90) scale(295.648 1400.44)">
<stop offset="0.195433"/>
<stop offset="1" stop-color="white"/>
</radialGradient>
</defs>
</svg>
