<svg width="48" height="48" viewBox="0 0 48 48" fill="none" xmlns="http://www.w3.org/2000/svg">
<g clip-path="url(#clip0_7707_8699)">
<path d="M37.3962 17.2823C37.0625 15.9922 36.0773 14.9716 34.8299 14.6287C32.5655 14 23.5 14 23.5 14C23.5 14 14.4345 14 12.1701 14.6287C10.9227 14.9716 9.93753 15.9841 9.60384 17.2823C9 19.6174 9 24.5 9 24.5C9 24.5 9 29.3826 9.60384 31.7177C9.93753 33.0078 10.9227 34.0284 12.1701 34.3713C14.4345 35 23.5 35 23.5 35C23.5 35 32.5655 35 34.8299 34.3713C36.0773 34.0284 37.0625 33.0078 37.3962 31.7177C38 29.3826 38 24.5 38 24.5C38 24.5 38 19.6174 37.3962 17.2823Z" fill="white"/>
<path d="M20.5364 28.9334L28.1161 24.4999L20.5364 20.0664V28.9334Z" fill="black"/>
</g>
<defs>
<clipPath id="clip0_7707_8699">
<rect width="29" height="21" fill="white" transform="translate(9 14)"/>
</clipPath>
</defs>
</svg>
