<svg width="80" height="80" viewBox="0 0 80 80" fill="none" xmlns="http://www.w3.org/2000/svg">
<g clip-path="url(#clip0_7834_15122)">
<path d="M65.8964 26.2519C65.2866 23.7947 63.486 21.8507 61.2063 21.1975C57.0679 20 40.5 20 40.5 20C40.5 20 23.9321 20 19.7937 21.1975C17.514 21.8507 15.7134 23.7792 15.1036 26.2519C14 30.6998 14 40 14 40C14 40 14 49.3002 15.1036 53.7481C15.7134 56.2053 17.514 58.1493 19.7937 58.8025C23.9321 60 40.5 60 40.5 60C40.5 60 57.0679 60 61.2063 58.8025C63.486 58.1493 65.2866 56.2053 65.8964 53.7481C67 49.3002 67 40 67 40C67 40 67 30.6998 65.8964 26.2519Z" fill="white"/>
<path d="M35.0836 48.4443L48.9362 39.9995L35.0836 31.5547V48.4443Z" fill="black"/>
</g>
<defs>
<clipPath id="clip0_7834_15122">
<rect width="53" height="40" fill="white" transform="translate(14 20)"/>
</clipPath>
</defs>
</svg>
